<svg width="31" height="22" viewBox="0 0 31 22" fill="none" xmlns="http://www.w3.org/2000/svg">
<g clip-path="url(#clip0)">
<path d="M20.3132 1.36712C20.214 1.26981 20.0957 1.19252 19.9651 1.13975C19.8346 1.08699 19.6944 1.05981 19.5529 1.05981C19.4113 1.05981 19.2711 1.08699 19.1406 1.13975C19.01 1.19252 18.8917 1.26981 18.7925 1.36712C18.5951 1.56026 18.4844 1.82047 18.4844 2.09155C18.4844 2.36263 18.5951 2.62283 18.7925 2.81598L26.5018 10.2394H1.06544C0.925209 10.2388 0.78624 10.2649 0.656577 10.3164C0.526914 10.3678 0.409132 10.4435 0.310047 10.5391C0.210963 10.6347 0.132543 10.7483 0.0793274 10.8732C0.0261114 10.9982 -0.000844331 11.1321 2.01531e-05 11.2671C2.01531e-05 11.8391 0.471546 12.3074 1.06381 12.3074H26.5001L18.7925 19.7183C18.5953 19.9144 18.485 20.1767 18.485 20.4498C18.485 20.7228 18.5953 20.9852 18.7925 21.1813C19.2168 21.5914 19.902 21.5914 20.3132 21.1813L29.8465 11.9994C29.9472 11.9054 30.0274 11.7928 30.0821 11.6683C30.1368 11.5439 30.165 11.4101 30.165 11.275C30.165 11.1398 30.1368 11.0061 30.0821 10.8816C30.0274 10.7572 29.9472 10.6446 29.8465 10.5505L20.3132 1.36712Z" fill="#192531"/>
</g>
<defs>
<clipPath id="clip0">
<rect width="31" height="22" fill="white"/>
</clipPath>
</defs>
</svg>
