<svg width="32" height="22" viewBox="0 0 32 22" fill="none" xmlns="http://www.w3.org/2000/svg">
<g clip-path="url(#clip0)">
<path d="M20.9684 1.36712C20.8661 1.26981 20.7439 1.19252 20.6092 1.13975C20.4744 1.08699 20.3297 1.05981 20.1836 1.05981C20.0375 1.05981 19.8928 1.08699 19.758 1.13975C19.6233 1.19252 19.5011 1.26981 19.3988 1.36712C19.1949 1.56026 19.0806 1.82047 19.0806 2.09155C19.0806 2.36263 19.1949 2.62283 19.3988 2.81598L27.3567 10.2394H1.09981C0.955054 10.2388 0.811602 10.2649 0.677757 10.3164C0.543911 10.3678 0.42233 10.4435 0.320049 10.5391C0.217768 10.6347 0.136819 10.7483 0.0818864 10.8732C0.0269537 10.9982 -0.000871568 11.1321 2.08032e-05 11.2671C2.08032e-05 11.8391 0.486758 12.3074 1.09813 12.3074H27.355L19.3988 19.7183C19.1951 19.9144 19.0813 20.1767 19.0813 20.4498C19.0813 20.7228 19.1951 20.9852 19.3988 21.1813C19.8367 21.5914 20.544 21.5914 20.9684 21.1813L30.8093 11.9994C30.9133 11.9054 30.996 11.7928 31.0525 11.6683C31.1089 11.5439 31.138 11.4101 31.138 11.275C31.138 11.1398 31.1089 11.0061 31.0525 10.8816C30.996 10.7572 30.9133 10.6446 30.8093 10.5505L20.9684 1.36712Z" fill="#BE8D55"/>
</g>
<defs>
<clipPath id="clip0">
<rect width="32" height="22" fill="white"/>
</clipPath>
</defs>
</svg>
