<svg width="174" height="97" viewBox="0 0 174 97" fill="none" xmlns="http://www.w3.org/2000/svg" style="opacity:.2;">
<path d="M81.1346 96.8177C80.8213 96.6611 80.5081 96.4 80.1426 96.3478C76.2791 95.408 75.9658 91.0224 78.1586 88.7251C78.4197 88.4641 78.8374 88.2552 78.994 87.8898C79.2028 87.4721 79.4639 86.8456 79.3073 86.4801C78.6807 84.8094 78.6807 83.2953 80.0382 82.0422C81.5523 80.6326 83.3274 80.3193 85.207 81.0502C85.5725 81.2069 85.8857 81.729 85.9902 82.1989C86.1468 82.8254 86.0424 83.4519 85.7291 84.1306C85.5725 83.8174 85.4158 83.5041 85.3114 83.1909C84.6849 81.729 83.2752 81.1547 81.7611 81.7812C80.5081 82.3033 79.8816 83.8696 80.4559 85.1748C80.8213 86.0102 81.3957 86.8456 82.0222 87.5765C83.6407 89.3517 85.3114 91.0746 86.9821 92.8497C88.6529 91.2312 88.7573 89.6127 87.191 88.0986C87.8697 88.0986 88.444 88.0464 89.0183 88.0986C89.6971 88.203 90.0103 88.5685 89.7493 89.2994C89.2272 90.6569 88.7573 92.0144 88.183 93.6851C89.5927 94.5205 91.1068 95.408 92.8819 96.4522C91.1068 96.6089 89.436 96.7133 88.0786 95.5647C87.191 94.8859 86.6167 94.8337 85.7291 95.5647C84.9982 96.139 84.0584 96.4 83.223 96.8177C82.4921 96.8177 81.8133 96.8177 81.1346 96.8177ZM80.1948 88.0464C78.7851 89.0906 78.3153 90.4481 78.5763 91.9622C78.8896 93.6329 79.7771 94.9382 81.5523 95.3558C83.1708 95.7213 84.6849 95.4602 85.9902 94.1028C84.0062 92.0666 82.1266 90.0826 80.1948 88.0464Z" fill="#192531"/>
<path d="M32.8924 96.8178C32.4747 96.6612 32.0048 96.4523 31.5871 96.3479C28.3501 95.4081 26.2617 92.4321 26.5749 89.1951C26.8882 85.8014 29.1332 83.452 32.6313 83.1909C34.6153 83.0343 36.5993 83.2954 38.6877 83.3998C38.6355 84.3918 38.5833 85.2271 38.5833 86.2191C36.5993 83.713 32.1092 83.1909 30.0208 85.0183C27.7236 87.1067 27.9846 91.649 30.5951 94.1029C31.796 95.2515 33.2579 95.7736 34.9808 95.7736C36.7037 95.7214 38.1656 95.3559 38.7399 93.3719C38.8443 95.5647 38.5311 95.9302 36.3905 96.7656C35.1374 96.8178 34.041 96.8178 32.8924 96.8178Z" fill="#192531"/>
<path d="M0.0522102 81.1547C1.30525 81.1547 2.5583 81.1547 3.65471 81.1547C4.22903 84.0263 6.1608 86.1147 7.57048 88.8818C8.92794 86.1147 10.9641 84.0785 11.2774 81.0503C12.0606 81.0503 13.1048 81.0503 13.9401 81.0503C11.1208 84.2351 8.24921 87.4199 8.14479 92.1189C8.14479 92.7454 8.04037 93.3719 8.14479 93.9462C8.30142 94.7816 8.61468 95.5647 8.82352 96.2957C7.93595 96.2957 6.78732 96.2957 5.6387 96.2957C6.99617 93.2153 6.52627 90.2393 5.01218 87.4199C4.17682 85.8536 3.18482 84.3395 2.08841 82.9821C1.56631 82.3033 0.678732 81.9379 0 81.4158C0.0522102 81.3636 0.0522102 81.2591 0.0522102 81.1547Z" fill="#192531"/>
<path d="M34.1454 35.7316C34.4587 35.2095 34.772 34.7918 35.033 34.3219C39.8363 25.9161 44.6397 17.5625 49.3386 9.10442C49.9129 8.06021 50.2784 6.80717 50.5394 5.55412C50.8527 3.93561 50.3306 3.20467 48.8165 2.47372C48.5032 2.31709 48.2944 1.89941 48.0333 1.58615C48.3466 1.42952 48.7121 1.16847 49.0253 1.16847C50.2784 1.11626 51.5314 1.16847 52.7845 1.16847C56.4392 1.16847 60.0939 1.16847 63.7486 1.16847C64.1663 1.16847 64.584 1.53394 65.0017 1.69057C64.584 1.89941 64.2185 2.31709 63.8008 2.3693C60.616 2.63035 58.1621 4.24887 56.387 6.70275C53.2544 11.1406 50.2784 15.7351 47.3546 20.3818C44.6919 24.6631 42.238 29.1009 39.6275 33.4866C37.8524 36.4626 36.8082 39.5952 36.8082 43.0932C36.8082 49.0974 36.8082 55.0494 36.8604 61.0536C36.8604 61.9933 37.017 62.9331 37.1736 63.8729C37.5391 65.6481 38.6877 66.7967 40.5151 67.0577C41.4549 67.2144 42.3946 67.2144 43.3344 67.3188C44.0132 67.4232 44.6919 67.6842 45.3706 67.8409C45.3706 67.9975 45.3706 68.1541 45.3706 68.3108C44.7963 68.4674 44.1698 68.7285 43.5955 68.7285C36.8082 68.7807 30.0208 68.7807 23.2857 68.7285C23.1813 68.7285 23.0247 68.6762 22.5026 68.5196C23.0247 68.0497 23.3379 67.5798 23.7556 67.371C24.0689 67.2144 24.5388 67.3188 24.9042 67.3188C26.7316 67.2666 27.9324 66.4834 28.2457 64.6561C28.6634 62.4632 28.82 60.2182 28.8722 57.9732C28.9766 53.222 28.8722 48.5231 28.9244 43.772C28.9244 40.4305 27.9324 37.3501 26.2095 34.5308C21.1451 26.647 16.2373 18.6589 11.1729 10.7229C9.86769 8.68674 8.19697 6.91159 6.57845 5.08423C5.2732 3.62235 3.49805 2.83919 1.56627 2.52593C1.2008 2.47372 0.887541 2.10825 0.57428 1.89941C0.887541 1.69057 1.25301 1.37731 1.56627 1.3251C3.81131 1.27289 6.05635 1.27289 8.3536 1.27289C11.4862 1.27289 14.6188 1.22068 17.7514 1.27289C18.1691 1.27289 18.639 1.42952 19.3699 1.53394C18.8478 2.00383 18.5868 2.26488 18.2735 2.47372C16.4462 3.51793 16.1329 4.30108 17.1771 6.23286C19.1611 9.93978 21.1973 13.6467 23.2857 17.2492C26.6794 23.0967 30.1252 28.8921 33.5189 34.7396C33.6755 35.0529 33.8844 35.3139 34.1454 35.7316Z" fill="#192531"/>
<path d="M149.165 5.03212C149.112 5.65864 149.06 6.02411 149.06 6.33738C149.06 22.888 149.06 39.4908 149.112 56.0415C149.112 58.652 149.426 61.2103 149.687 63.8208C149.896 65.8048 150.94 66.849 152.924 67.11C154.177 67.2667 155.43 67.3711 156.683 67.5277C156.996 67.5799 157.309 67.7888 158.04 68.0498C157.205 68.4153 156.683 68.833 156.161 68.833C149.634 68.833 143.16 68.7808 136.634 68.6763C136.164 68.6763 135.642 68.4675 135.172 68.3631C135.12 68.2064 135.12 68.0498 135.068 67.8932C135.642 67.6843 136.216 67.3711 136.843 67.3189C139.192 67.11 139.923 66.6401 140.55 64.3951C140.863 63.2987 141.072 62.0979 141.072 60.9492C141.229 42.8845 141.281 24.7676 141.437 6.70285C141.437 5.4498 141.176 4.97991 139.819 5.03212C134.494 5.29317 129.168 5.34538 123.79 5.55422C121.023 5.65864 119.248 7.22495 118.1 9.67883C117.786 10.4098 117.264 11.0363 116.846 11.7672C116.638 11.715 116.481 11.6106 116.272 11.5584C116.377 10.3576 116.377 9.10452 116.638 7.95589C117.212 5.50201 117.943 3.10034 118.569 0.698675C118.778 -0.0322674 119.144 -0.0844776 119.822 0.072153C121.702 0.489835 123.634 1.11636 125.513 1.16857C138.514 1.3252 151.462 1.42962 164.462 1.42962C166.551 1.42962 168.587 1.01194 170.675 0.803096C171.354 0.750885 172.033 0.698675 173.077 0.594255C173.077 2.16056 173.129 3.62245 173.077 5.03212C173.025 6.9639 172.92 8.84346 172.868 10.7752C172.868 11.1407 172.868 11.5062 172.711 11.7672C172.607 12.0283 172.294 12.2371 172.085 12.446C171.876 12.2371 171.511 12.0283 171.458 11.7672C171.302 11.1929 171.197 10.5664 171.197 9.99209C171.093 8.47799 170.31 7.38158 169.004 6.85948C167.595 6.28517 166.081 5.65864 164.567 5.55422C159.398 5.29317 154.333 5.18875 149.165 5.03212Z" fill="#192531"/>
<path d="M97.9463 57.8687C100.452 54.0574 101.444 50.1416 100.818 45.8604C100.609 44.5551 99.5648 43.9808 98.364 43.6675C97.6331 43.5109 96.9543 43.2499 96.2234 43.0932C96.3278 42.8322 96.3278 42.7278 96.3278 42.7278C99.3038 42.1535 102.28 42.4145 105.151 43.1977C105.569 43.3021 105.934 44.3985 105.882 45.025C105.673 48.001 104.681 50.7681 103.22 53.3786C102.28 54.9972 101.34 56.5635 100.296 58.1298C99.8259 58.8607 99.8781 59.3306 100.505 59.9049C104.212 63.3508 108.702 65.5958 113.348 67.371C114.393 67.7887 115.593 67.8409 116.742 68.0497C116.742 68.1541 116.742 68.2585 116.794 68.4152C116.429 68.5196 116.063 68.7806 115.698 68.7806C112.409 68.7284 109.119 68.7284 105.83 68.5196C103.272 68.363 101.236 66.8489 99.2516 65.387C96.2756 63.1942 96.3278 63.2986 93.3518 65.4392C87.5043 69.7204 81.1869 71.0779 74.1907 68.4674C64.9495 64.9693 62.9133 55.3626 66.7246 48.1054C68.1343 45.3905 70.1705 43.1454 72.781 41.4225C74.4517 40.3261 74.2951 40.3783 73.512 38.6032C72.6766 36.7758 71.789 34.844 71.528 32.9122C70.7448 27.0647 75.8614 21.5304 81.3957 20.2774C84.9982 19.442 88.5485 19.7553 92.0466 20.9039C93.2996 21.3216 93.8217 22.2092 93.7695 23.4622C93.6129 25.655 93.5085 27.9001 93.2996 30.0929C93.2474 30.5628 92.9864 30.9805 92.7775 31.4504C92.6731 31.4504 92.5165 31.4504 92.412 31.3982C92.3076 30.7194 92.0988 29.9885 92.0988 29.3097C91.8377 25.1329 88.2874 22.0003 83.7974 22.0003C79.7772 22.0003 76.1225 25.394 75.8614 29.3097C75.6526 32.5468 76.8534 35.3139 78.6808 37.8722C82.2311 42.8844 86.4601 47.3223 90.9502 51.4469C92.8297 53.1698 94.6571 54.8927 96.4844 56.5635C96.9543 57.0334 97.372 57.3466 97.9463 57.8687ZM83.1708 66.1179C84.0584 66.0135 84.9982 65.9613 85.8858 65.8047C88.7051 65.3348 91.3678 64.5516 93.6129 62.6721C94.2916 62.0977 94.396 61.6801 93.6651 61.0535C87.3999 55.6237 81.7612 49.5673 76.4357 43.1977C75.6004 42.2057 75.0261 42.2057 74.0863 42.9888C71.6324 45.0772 70.7448 47.8444 70.2227 50.8203C68.9175 59.0173 74.8694 66.0657 83.1708 66.1179Z" fill="#192531"/>
<path d="M139.558 96.4C138.931 96.4 138.044 96.5044 137.208 96.3477C136.895 96.2955 136.53 95.8256 136.373 95.5124C136.008 94.5726 135.799 93.5284 135.329 92.5886C135.12 92.1709 134.546 91.6488 134.076 91.6488C130.525 91.6488 131.309 90.8135 130.056 94.5204C129.847 95.0947 129.951 95.7212 129.899 96.4C126.61 97.2875 124.26 96.5044 122.172 93.7894C121.598 93.0063 121.128 92.1709 120.397 91.5966C119.875 91.1789 118.987 91.0745 118.308 91.0745C118.152 91.0745 117.786 92.0665 117.838 92.5364C117.838 93.7372 118.047 94.9903 118.152 96.2433C117.525 96.2433 116.638 96.2433 115.75 96.2433C116.376 94.4682 116.168 84.3916 115.176 83.1386C117.473 83.2952 119.561 83.2952 121.545 83.6607C123.843 84.1306 124.469 86.7411 123.007 88.9339C121.806 90.709 121.754 90.709 123.164 92.3798C124.051 93.424 125.043 94.4682 126.088 95.3035C127.341 96.3477 128.072 96.1911 128.698 94.7292C129.69 92.5364 130.525 90.2392 131.413 87.9941C132.04 86.4278 132.614 84.8615 133.345 82.9819C133.971 84.4438 134.493 85.5402 135.016 86.6889C135.955 88.9861 136.843 91.2834 137.835 93.5284C138.305 94.5204 138.984 95.408 139.558 96.4ZM117.891 86.9499C117.891 87.5764 117.943 88.2552 117.891 88.8817C117.838 89.8737 118.308 90.2914 119.248 90.2914C120.814 90.3436 121.911 89.4038 122.067 87.8897C122.276 85.9579 121.232 84.2872 119.614 84.0261C118.152 83.7651 117.838 84.0261 117.838 85.488C117.891 85.9579 117.891 86.48 117.891 86.9499ZM131.57 90.5524C132.614 90.5524 133.554 90.5524 134.598 90.5524C134.128 89.1949 133.71 87.9419 133.136 86.3234C132.562 87.9419 132.092 89.1949 131.57 90.5524Z" fill="#192531"/>
<path d="M44.8485 96.1914C44.222 96.1914 43.4389 96.1914 42.8123 96.1914C42.8123 92.5889 42.8646 89.0908 42.7601 85.5405C42.7601 84.8095 42.3424 84.0786 42.1336 83.3477C42.8123 83.3477 43.8565 83.3477 44.7441 83.3477C44.7441 85.0184 44.7441 86.7413 44.7441 88.5165C47.0414 88.5165 49.443 88.5165 52.0535 88.5165C51.6881 86.7935 52.8367 84.8617 51.0615 83.3999C52.2102 83.3999 53.3588 83.3999 54.5074 83.3999C53.7243 84.6007 53.5154 93.0587 54.2464 96.1914C53.3066 96.2436 52.419 96.2958 51.6881 96.348C51.6881 94.1552 51.6881 92.0145 51.6881 89.7695C49.4952 89.7695 47.1458 89.7695 44.7963 89.7695C44.8485 91.9101 44.8485 93.9985 44.8485 96.1914Z" fill="#192531"/>
<path d="M149.217 83.3477C149.895 83.3477 150.887 83.3477 151.618 83.3477C151.096 84.2352 150.522 85.0706 150.104 86.0104C148.747 89.0386 147.442 92.119 146.084 95.1472C145.875 95.617 145.614 96.0347 145.249 96.7135C144.883 96.0869 144.57 95.6693 144.361 95.1472C143.004 91.8579 141.646 88.6209 140.237 85.3316C139.923 84.6007 139.349 83.9742 138.879 83.3477C139.871 83.3477 141.072 83.3477 142.221 83.3477C142.116 83.7131 141.855 84.1308 141.959 84.4441C143.108 87.4723 144.257 90.5004 145.562 93.8419C146.502 91.5447 147.233 89.5607 148.016 87.6289C148.277 86.8979 148.642 86.167 148.799 85.4361C149.112 84.8618 149.112 84.1308 149.217 83.3477Z" fill="#192531"/>
<path d="M18.8478 82.8777C19.2655 83.713 19.5788 84.2352 19.7876 84.7573C20.884 87.42 21.876 90.1349 23.0247 92.8498C23.4946 93.9985 24.1733 95.0949 24.6954 96.1913C22.5026 96.609 22.3981 96.5568 21.6672 94.5206C21.615 94.4161 21.5628 94.2595 21.5628 94.1551C20.5186 91.2835 20.3619 91.2313 17.2815 91.5446C17.0205 91.5446 16.655 91.649 16.6028 91.8056C16.1851 93.2675 15.0365 94.5206 15.663 96.2435C14.8799 96.2435 14.0967 96.2435 13.6268 96.2435C15.2976 91.9623 17.0205 87.5766 18.8478 82.8777ZM17.0727 90.5526C18.1691 90.5526 19.1089 90.5526 20.2575 90.5526C19.6832 89.0907 19.2133 87.7332 18.6912 86.428C18.5868 86.428 18.4824 86.4802 18.378 86.4802C17.9081 87.8377 17.4904 89.1429 17.0727 90.5526Z" fill="#192531"/>
<path d="M99.7737 82.8777C99.8781 82.199 100.035 81.5725 100.139 80.8416C102.28 80.946 104.316 81.1026 106.352 81.1026C108.336 81.1548 110.32 81.1026 112.409 81.1026C112.409 81.5203 112.409 82.0946 112.409 82.4079C110.79 82.199 109.067 81.9902 107.292 81.7291C107.24 82.3034 107.135 82.6689 107.135 82.9822C107.135 86.6369 107.135 90.2916 107.188 93.8941C107.188 94.6773 107.553 95.4604 107.762 96.1913C106.874 96.1913 105.673 96.1913 104.681 96.1913C104.89 95.3038 105.204 94.4684 105.204 93.6853C105.256 90.2394 105.151 86.8457 105.256 83.3998C105.308 82.0946 104.838 81.7291 103.637 81.8858C102.436 82.0946 100.975 81.7291 99.7737 82.8777Z" fill="#192531"/>
<path d="M161.434 94.4682C161.382 95.1992 161.382 95.6691 161.33 96.2434C158.928 96.2434 156.578 96.2434 154.281 96.2434C155.482 93.6851 155.325 84.6005 153.968 83.3997C156.265 83.3997 158.51 83.3997 160.807 83.3997C160.807 83.974 160.807 84.5483 160.807 85.2792C159.815 83.7129 158.301 84.0784 156.839 84.1306C156.839 85.7491 156.839 87.2632 156.839 88.9339C158.093 88.9339 159.346 88.9339 160.703 88.9339C160.651 89.456 160.651 90.0304 160.651 90.3436C159.398 90.1348 158.145 89.9781 156.683 89.7171C156.787 91.7011 156.787 93.2674 156.996 94.8859C157.101 95.7735 159.241 96.0867 160.285 95.408C160.599 95.1992 160.912 94.8859 161.434 94.4682Z" fill="#192531"/>
<path d="M61.9735 83.922C60.4594 84.1308 58.9975 84.3396 57.4834 84.5485C57.2746 83.191 57.379 83.0866 59.1019 83.1388C62.2346 83.191 65.315 83.1388 68.4998 83.1388C68.4998 83.9742 68.4998 84.5485 68.4998 85.1228C67.2467 83.6609 65.6282 84.2874 63.9053 84.183C63.9053 85.9582 63.9053 87.5767 63.9053 89.1952C63.9053 90.8137 63.8531 92.38 63.9575 93.9985C64.0097 94.7295 64.3752 95.4604 64.6362 96.1913C63.9053 96.1913 62.8611 96.1913 61.9735 96.1913C61.9735 92.2756 61.9735 88.3598 61.9735 83.922Z" fill="#192531"/>
<path d="M172.346 96.2956C169.84 96.2956 167.49 96.2956 165.35 96.2956C165.402 94.7815 165.506 93.2674 165.559 91.7533C165.611 89.7171 165.611 87.6809 165.506 85.6447C165.454 84.9138 165.089 84.1306 164.88 83.3997C165.767 83.3997 166.916 83.3997 167.908 83.3997C167.699 84.1306 167.334 84.8615 167.334 85.6447C167.281 88.2552 167.281 90.8657 167.386 93.424C167.438 95.408 167.543 95.408 169.474 95.5646C170.623 95.6691 171.719 95.6691 172.607 94.5204C172.503 95.0947 172.45 95.6691 172.346 96.2956Z" fill="#192531"/>
</svg>
