<svg width="173" height="98" viewBox="0 0 173 98" fill="none" xmlns="http://www.w3.org/2000/svg">
<path d="M81.0346 97.0899C80.7214 96.9333 80.4081 96.6723 80.0426 96.62C76.1791 95.6803 75.8658 91.2946 78.0587 88.9973C78.3197 88.7363 78.7374 88.5275 78.894 88.162C79.1029 87.7443 79.3639 87.1178 79.2073 86.7523C78.5808 85.0816 78.5808 83.5675 79.9382 82.3145C81.4523 80.9048 83.2275 80.5915 85.107 81.3225C85.4725 81.4791 85.7858 82.0012 85.8902 82.4711C86.0468 83.0976 85.9424 83.7241 85.6291 84.4029C85.4725 84.0896 85.3159 83.7763 85.2114 83.4631C84.5849 82.0012 83.1753 81.4269 81.6612 82.0534C80.4081 82.5755 79.7816 84.1418 80.3559 85.4471C80.7214 86.2824 81.2957 87.1178 81.9222 87.8487C83.5407 89.6239 85.2114 91.3468 86.8822 93.122C88.5529 91.5034 88.6573 89.8849 87.091 88.3708C87.7697 88.3708 88.3441 88.3186 88.9184 88.3708C89.5971 88.4752 89.9104 88.8407 89.6493 89.5717C89.1272 90.9291 88.6573 92.2866 88.083 93.9573C89.4927 94.7927 91.0068 95.6803 92.7819 96.7245C91.0068 96.8811 89.3361 96.9855 87.9786 95.8369C87.091 95.1582 86.5167 95.1059 85.6291 95.8369C84.8982 96.4112 83.9584 96.6722 83.123 97.0899C82.3921 97.0899 81.7134 97.0899 81.0346 97.0899ZM80.0948 88.3186C78.6852 89.3628 78.2153 90.7203 78.4763 92.2344C78.7896 93.9051 79.6772 95.2104 81.4523 95.628C83.0708 95.9935 84.5849 95.7325 85.8902 94.375C83.9062 92.3388 82.0266 90.3548 80.0948 88.3186Z" fill="white"/>
<path d="M32.7924 97.09C32.3747 96.9334 31.9048 96.7245 31.4872 96.6201C28.2501 95.6803 26.1617 92.7044 26.475 89.4673C26.7882 86.0737 29.0333 83.7242 32.5314 83.4632C34.5153 83.3065 36.4993 83.5676 38.5877 83.672C38.5355 84.664 38.4833 85.4994 38.4833 86.4913C36.4993 83.9853 32.0093 83.4632 29.9208 85.2905C27.6236 87.3789 27.8846 91.9212 30.4952 94.3751C31.696 95.5237 33.1579 96.0458 34.8808 96.0458C36.6037 95.9936 38.0656 95.6281 38.6399 93.6441C38.7444 95.837 38.4311 96.2024 36.2905 97.0378C35.0374 97.09 33.941 97.09 32.7924 97.09Z" fill="white"/>
<path d="M-0.0477654 81.4269C1.20528 81.4269 2.45832 81.4269 3.55474 81.4269C4.12905 84.2985 6.06083 86.3869 7.4705 89.154C8.82797 86.3869 10.8642 84.3507 11.1774 81.3225C11.9606 81.3225 13.0048 81.3225 13.8401 81.3225C11.0208 84.5073 8.14923 87.6922 8.04481 92.3911C8.04481 93.0176 7.94039 93.6441 8.04481 94.2184C8.20144 95.0538 8.51471 95.8369 8.72355 96.5679C7.83597 96.5679 6.68735 96.5679 5.53872 96.5679C6.89619 93.4875 6.4263 90.5115 4.9122 87.6922C4.07684 86.1258 3.08485 84.6117 1.98843 83.2543C1.46633 82.5756 0.578757 82.2101 -0.0999756 81.688C-0.0477654 81.6358 -0.0477654 81.5313 -0.0477654 81.4269Z" fill="white"/>
<path d="M34.0455 36.0038C34.3588 35.4817 34.672 35.064 34.9331 34.5942C39.7364 26.1883 44.5398 17.8347 49.2387 9.37663C49.813 8.33243 50.1785 7.07939 50.4395 5.82634C50.7528 4.20783 50.2307 3.47688 48.7166 2.74594C48.4033 2.58931 48.1945 2.17163 47.9334 1.85837C48.2467 1.70174 48.6122 1.44068 48.9254 1.44068C50.1785 1.38847 51.4315 1.44068 52.6846 1.44068C56.3393 1.44068 59.994 1.44068 63.6487 1.44068C64.0664 1.44068 64.4841 1.80616 64.9017 1.96279C64.4841 2.17163 64.1186 2.58931 63.7009 2.64152C60.5161 2.90257 58.0622 4.52109 56.2871 6.97496C53.1544 11.4128 50.1785 16.0073 47.2547 20.654C44.592 24.9353 42.1381 29.3731 39.5276 33.7588C37.7524 36.7348 36.7082 39.8674 36.7082 43.3655C36.7082 49.3696 36.7082 55.3216 36.7604 61.3258C36.7604 62.2656 36.9171 63.2053 37.0737 64.1451C37.4392 65.9203 38.5878 67.0689 40.4152 67.3299C41.3549 67.4866 42.2947 67.4866 43.2345 67.591C43.9132 67.6954 44.592 67.9565 45.2707 68.1131C45.2707 68.2697 45.2707 68.4264 45.2707 68.583C44.6964 68.7396 44.0699 69.0007 43.4956 69.0007C36.7082 69.0529 29.9209 69.0529 23.1858 69.0007C23.0814 69.0007 22.9247 68.9485 22.4026 68.7918C22.9247 68.3219 23.238 67.852 23.6557 67.6432C23.969 67.4866 24.4388 67.591 24.8043 67.591C26.6317 67.5388 27.8325 66.7556 28.1458 64.9283C28.5634 62.7354 28.7201 60.4904 28.7723 58.2454C28.8767 53.4942 28.7723 48.7953 28.8245 44.0442C28.8245 40.7027 27.8325 37.6223 26.1096 34.803C21.0452 26.9193 16.1374 18.9311 11.073 10.9951C9.76778 8.95895 8.09705 7.18381 6.47854 5.35645C5.17328 3.89456 3.39814 3.11141 1.46636 2.79815C1.10089 2.74594 0.787626 2.38047 0.474365 2.17163C0.787626 1.96279 1.1531 1.64953 1.46636 1.59732C3.7114 1.54511 5.95643 1.54511 8.25368 1.54511C11.3863 1.54511 14.5189 1.4929 17.6515 1.54511C18.0692 1.54511 18.5391 1.70174 19.27 1.80616C18.7479 2.27605 18.4869 2.5371 18.1736 2.74594C16.3463 3.79014 16.033 4.5733 17.0772 6.50507C19.0612 10.212 21.0974 13.9189 23.1858 17.5214C26.5795 23.369 30.0253 29.1643 33.419 35.0118C33.5756 35.3251 33.7845 35.5861 34.0455 36.0038Z" fill="white"/>
<path d="M149.065 5.30434C149.012 5.93086 148.96 6.29633 148.96 6.60959C148.96 23.1602 148.96 39.7631 149.012 56.3137C149.012 58.9242 149.326 61.4825 149.587 64.093C149.795 66.077 150.84 67.1212 152.824 67.3822C154.077 67.5389 155.33 67.6433 156.583 67.7999C156.896 67.8521 157.209 68.061 157.94 68.322C157.105 68.6875 156.583 69.1052 156.061 69.1052C149.534 69.1052 143.06 69.053 136.534 68.9486C136.064 68.9486 135.542 68.7397 135.072 68.6353C135.02 68.4787 135.02 68.322 134.968 68.1654C135.542 67.9566 136.116 67.6433 136.743 67.5911C139.092 67.3822 139.823 66.9124 140.45 64.6673C140.763 63.5709 140.972 62.3701 140.972 61.2214C141.129 43.1567 141.181 25.0398 141.337 6.97506C141.337 5.72202 141.076 5.25213 139.719 5.30434C134.393 5.56539 129.068 5.6176 123.69 5.82644C120.923 5.93086 119.148 7.49717 117.999 9.95104C117.686 10.682 117.164 11.3085 116.746 12.0395C116.538 11.9872 116.381 11.8828 116.172 11.8306C116.277 10.6298 116.277 9.37673 116.538 8.22811C117.112 5.77423 117.843 3.37256 118.469 0.970892C118.678 0.239949 119.044 0.187739 119.722 0.34437C121.602 0.762051 123.534 1.38857 125.413 1.44078C138.414 1.59741 151.362 1.70183 164.362 1.70183C166.451 1.70183 168.487 1.28415 170.575 1.07531C171.254 1.0231 171.933 0.970892 172.977 0.866472C172.977 2.43278 173.029 3.89466 172.977 5.30434C172.925 7.23612 172.82 9.11568 172.768 11.0475C172.768 11.4129 172.768 11.7784 172.611 12.0395C172.507 12.3005 172.194 12.5093 171.985 12.7182C171.776 12.5093 171.41 12.3005 171.358 12.0395C171.202 11.4651 171.097 10.8386 171.097 10.2643C170.993 8.75021 170.21 7.6538 168.904 7.13169C167.495 6.55738 165.981 5.93086 164.467 5.82644C159.298 5.56539 154.233 5.46097 149.065 5.30434Z" fill="white"/>
<path d="M97.8464 58.1409C100.352 54.3296 101.344 50.4138 100.718 46.1326C100.509 44.8273 99.4649 44.253 98.264 43.9398C97.5331 43.7831 96.8544 43.5221 96.1234 43.3655C96.2278 43.1044 96.2278 43 96.2278 43C99.2038 42.4257 102.18 42.6867 105.051 43.4699C105.469 43.5743 105.835 44.6707 105.782 45.2972C105.573 48.2732 104.581 51.0403 103.12 53.6509C102.18 55.2694 101.24 56.8357 100.196 58.402C99.7259 59.1329 99.7781 59.6028 100.405 60.1771C104.112 63.623 108.602 65.868 113.248 67.6432C114.293 68.0609 115.493 68.1131 116.642 68.3219C116.642 68.4263 116.642 68.5308 116.694 68.6874C116.329 68.7918 115.963 69.0529 115.598 69.0529C112.309 69.0007 109.019 69.0007 105.73 68.7918C103.172 68.6352 101.136 67.1211 99.1516 65.6592C96.1756 63.4664 96.2278 63.5708 93.2519 65.7114C87.4043 69.9926 81.0869 71.3501 74.0907 68.7396C64.8495 65.2415 62.8133 55.6348 66.6247 48.3776C68.0343 45.6627 70.0705 43.4177 72.681 41.6947C74.3518 40.5983 74.1951 40.6505 73.412 38.8754C72.5766 37.048 71.689 35.1162 71.428 33.1845C70.6448 27.3369 75.7614 21.8026 81.2957 20.5496C84.8982 19.7142 88.4485 20.0275 91.9466 21.1761C93.1996 21.5938 93.7218 22.4814 93.6695 23.7344C93.5129 25.9272 93.4085 28.1723 93.1997 30.3651C93.1474 30.835 92.8864 31.2527 92.6775 31.7226C92.5731 31.7226 92.4165 31.7226 92.3121 31.6704C92.2077 30.9916 91.9988 30.2607 91.9988 29.582C91.7378 25.4051 88.1875 22.2725 83.6974 22.2725C79.6772 22.2725 76.0225 25.6662 75.7614 29.582C75.5526 32.819 76.7534 35.5861 78.5808 38.1444C82.1311 43.1566 86.3601 47.5945 90.8502 51.7191C92.7298 53.442 94.5571 55.165 96.3845 56.8357C96.8544 57.3056 97.272 57.6188 97.8464 58.1409ZM83.0709 66.3901C83.9584 66.2857 84.8982 66.2335 85.7858 66.0769C88.6051 65.607 91.2679 64.8238 93.5129 62.9443C94.1916 62.37 94.2961 61.9523 93.5651 61.3258C87.2999 55.8959 81.6612 49.8395 76.3358 43.4699C75.5004 42.4779 74.9261 42.4779 73.9863 43.261C71.5324 45.3494 70.6448 48.1166 70.1227 51.0926C68.8175 59.2896 74.7695 66.3379 83.0709 66.3901Z" fill="white"/>
<path d="M139.458 96.6722C138.831 96.6722 137.944 96.7766 137.108 96.62C136.795 96.5678 136.43 96.0979 136.273 95.7846C135.908 94.8448 135.699 93.8006 135.229 92.8608C135.02 92.4431 134.446 91.921 133.976 91.921C130.425 91.921 131.209 91.0857 129.956 94.7926C129.747 95.3669 129.851 95.9934 129.799 96.6722C126.51 97.5597 124.16 96.7766 122.072 94.0617C121.498 93.2785 121.028 92.4431 120.297 91.8688C119.775 91.4511 118.887 91.3467 118.208 91.3467C118.052 91.3467 117.686 92.3387 117.738 92.8086C117.738 94.0095 117.947 95.2625 118.052 96.5155C117.425 96.5155 116.538 96.5155 115.65 96.5155C116.277 94.7404 116.068 84.6638 115.076 83.4108C117.373 83.5674 119.461 83.5674 121.445 83.9329C123.743 84.4028 124.369 87.0133 122.907 89.2061C121.706 90.9813 121.654 90.9813 123.064 92.652C123.951 93.6962 124.943 94.7404 125.988 95.5758C127.241 96.62 127.972 96.4633 128.598 95.0014C129.59 92.8086 130.425 90.5114 131.313 88.2663C131.94 86.7 132.514 85.1337 133.245 83.2542C133.871 84.716 134.393 85.8125 134.916 86.9611C135.855 89.2583 136.743 91.5556 137.735 93.8006C138.205 94.7926 138.884 95.6802 139.458 96.6722ZM117.791 87.2221C117.791 87.8487 117.843 88.5274 117.791 89.1539C117.738 90.1459 118.208 90.5636 119.148 90.5636C120.714 90.6158 121.811 89.676 121.967 88.1619C122.176 86.2301 121.132 84.5594 119.514 84.2984C118.052 84.0373 117.738 84.2984 117.738 85.7602C117.791 86.2301 117.791 86.7522 117.791 87.2221ZM131.47 90.8246C132.514 90.8246 133.454 90.8246 134.498 90.8246C134.028 89.4672 133.61 88.2141 133.036 86.5956C132.462 88.2141 131.992 89.4672 131.47 90.8246Z" fill="white"/>
<path d="M44.7485 96.4636C44.122 96.4636 43.3388 96.4636 42.7123 96.4636C42.7123 92.8611 42.7645 89.363 42.6601 85.8127C42.6601 85.0818 42.2424 84.3508 42.0336 83.6199C42.7123 83.6199 43.7565 83.6199 44.6441 83.6199C44.6441 85.2906 44.6441 87.0135 44.6441 88.7887C46.9413 88.7887 49.343 88.7887 51.9535 88.7887C51.588 87.0657 52.7367 85.134 50.9615 83.6721C52.1101 83.6721 53.2588 83.6721 54.4074 83.6721C53.6242 84.8729 53.4154 93.331 54.1463 96.4636C53.2066 96.5158 52.319 96.568 51.588 96.6202C51.588 94.4274 51.588 92.2868 51.588 90.0417C49.3952 90.0417 47.0457 90.0417 44.6963 90.0417C44.7485 92.1823 44.7485 94.2707 44.7485 96.4636Z" fill="white"/>
<path d="M149.117 83.6199C149.796 83.6199 150.788 83.6199 151.518 83.6199C150.996 84.5074 150.422 85.3428 150.004 86.2826C148.647 89.3108 147.342 92.3912 145.984 95.4194C145.775 95.8893 145.514 96.3069 145.149 96.9857C144.783 96.3592 144.47 95.9415 144.261 95.4194C142.904 92.1301 141.546 88.8931 140.137 85.6039C139.823 84.8729 139.249 84.2464 138.779 83.6199C139.771 83.6199 140.972 83.6199 142.121 83.6199C142.016 83.9853 141.755 84.403 141.86 84.7163C143.008 87.7445 144.157 90.7727 145.462 94.1141C146.402 91.8169 147.133 89.8329 147.916 87.9011C148.177 87.1702 148.542 86.4392 148.699 85.7083C149.012 85.134 149.012 84.403 149.117 83.6199Z" fill="white"/>
<path d="M18.7479 83.1499C19.1656 83.9853 19.4788 84.5074 19.6877 85.0295C20.7841 87.6922 21.7761 90.4071 22.9247 93.1221C23.3946 94.2707 24.0733 95.3671 24.5954 96.4635C22.4026 96.8812 22.2982 96.829 21.5672 94.7928C21.515 94.6884 21.4628 94.5317 21.4628 94.4273C20.4186 91.5557 20.262 91.5035 17.1816 91.8168C16.9205 91.8168 16.555 91.9212 16.5028 92.0778C16.0852 93.5397 14.9365 94.7928 15.5631 96.5157C14.7799 96.5157 13.9967 96.5157 13.5269 96.5157C15.1976 92.2345 16.9205 87.8488 18.7479 83.1499ZM16.9727 90.8248C18.0691 90.8248 19.0089 90.8248 20.1575 90.8248C19.5832 89.3629 19.1133 88.0055 18.5912 86.7002C18.4868 86.7002 18.3824 86.7524 18.278 86.7524C17.8081 88.1099 17.3904 89.4151 16.9727 90.8248Z" fill="white"/>
<path d="M99.6737 83.15C99.7781 82.4712 99.9348 81.8447 100.039 81.1138C102.18 81.2182 104.216 81.3748 106.252 81.3748C108.236 81.427 110.22 81.3748 112.309 81.3748C112.309 81.7925 112.309 82.3668 112.309 82.6801C110.69 82.4712 108.967 82.2624 107.192 82.0013C107.14 82.5757 107.035 82.9411 107.035 83.2544C107.035 86.9091 107.035 90.5638 107.088 94.1663C107.088 94.9495 107.453 95.7326 107.662 96.4636C106.774 96.4636 105.573 96.4636 104.581 96.4636C104.79 95.576 105.104 94.7406 105.104 93.9575C105.156 90.5116 105.051 87.1179 105.156 83.6721C105.208 82.3668 104.738 82.0013 103.537 82.158C102.336 82.3668 100.875 82.0013 99.6737 83.15Z" fill="white"/>
<path d="M161.334 94.7404C161.282 95.4714 161.282 95.9413 161.23 96.5156C158.828 96.5156 156.478 96.5156 154.181 96.5156C155.382 93.9573 155.225 84.8727 153.868 83.6719C156.165 83.6719 158.41 83.6719 160.707 83.6719C160.707 84.2462 160.707 84.8205 160.707 85.5514C159.715 83.9851 158.201 84.3506 156.739 84.4028C156.739 86.0213 156.739 87.5354 156.739 89.2062C157.993 89.2062 159.246 89.2062 160.603 89.2062C160.551 89.7283 160.551 90.3026 160.551 90.6158C159.298 90.407 158.045 90.2504 156.583 89.9893C156.687 91.9733 156.687 93.5396 156.896 95.1581C157.001 96.0457 159.141 96.359 160.185 95.6802C160.499 95.4714 160.812 95.1581 161.334 94.7404Z" fill="white"/>
<path d="M61.8735 84.1942C60.3594 84.403 58.8976 84.6118 57.3835 84.8207C57.1746 83.4632 57.279 83.3588 59.002 83.411C62.1346 83.4632 65.215 83.411 68.3998 83.411C68.3998 84.2464 68.3998 84.8207 68.3998 85.395C67.1468 83.9331 65.5282 84.5596 63.8053 84.4552C63.8053 86.2304 63.8053 87.8489 63.8053 89.4674C63.8053 91.0859 63.7531 92.6522 63.8575 94.2707C63.9097 95.0017 64.2752 95.7326 64.5363 96.4636C63.8053 96.4636 62.7611 96.4636 61.8735 96.4636C61.8735 92.5478 61.8735 88.632 61.8735 84.1942Z" fill="white"/>
<path d="M172.246 96.5678C169.74 96.5678 167.39 96.5678 165.25 96.5678C165.302 95.0537 165.406 93.5396 165.459 92.0255C165.511 89.9893 165.511 87.9531 165.406 85.9169C165.354 85.186 164.989 84.4028 164.78 83.6719C165.667 83.6719 166.816 83.6719 167.808 83.6719C167.599 84.4028 167.234 85.1338 167.234 85.9169C167.181 88.5274 167.181 91.1379 167.286 93.6962C167.338 95.6802 167.442 95.6802 169.374 95.8369C170.523 95.9413 171.619 95.9413 172.507 94.7926C172.402 95.367 172.35 95.9413 172.246 96.5678Z" fill="white"/>
</svg>
