<svg width="112" height="113" viewBox="0 0 112 113" fill="none" xmlns="http://www.w3.org/2000/svg">
<path d="M45.135 111.182L46.275 103.566L47.527 103.754L46.565 110.172L49.665 110.637L50.627 104.218L51.878 104.405L50.738 112.021L45.135 111.182V111.182ZM34.618 100.642C35.622 100.222 36.64 100.223 37.671 100.646C38.703 101.069 39.432 101.784 39.859 102.792C40.277 103.803 40.274 104.824 39.851 105.856C39.428 106.887 38.715 107.613 37.71 108.033C36.696 108.457 35.673 108.458 34.642 108.035C33.61 107.612 32.886 106.895 32.468 105.884C32.041 104.876 32.039 103.857 32.462 102.826C32.885 101.794 33.604 101.067 34.618 100.642ZM38.709 103.247C38.419 102.565 37.917 102.078 37.204 101.786C36.492 101.494 35.796 101.49 35.117 101.774C34.427 102.062 33.933 102.573 33.633 103.306C33.333 104.039 33.327 104.746 33.618 105.428C33.9 106.114 34.397 106.603 35.109 106.895C35.821 107.187 36.522 107.189 37.211 106.901C37.891 106.617 38.381 106.108 38.681 105.376C38.981 104.643 38.991 103.933 38.709 103.247V103.247ZM27.271 94.668C28.201 95.359 28.746 96.238 28.904 97.305C29.057 98.378 28.797 99.367 28.124 100.274C27.451 101.181 26.581 101.713 25.514 101.871C24.443 102.035 23.442 101.771 22.511 101.081C21.9665 100.684 21.5355 100.151 21.261 99.536C20.9849 98.9418 20.8766 98.2833 20.948 97.632L22.211 97.776C22.149 98.204 22.211 98.625 22.398 99.038C22.575 99.452 22.858 99.803 23.246 100.092C23.906 100.581 24.596 100.77 25.319 100.658C26.035 100.541 26.632 100.162 27.109 99.52C27.585 98.878 27.775 98.198 27.679 97.478C27.577 96.754 27.197 96.148 26.537 95.658C26.1701 95.3784 25.737 95.1986 25.28 95.136C24.8493 95.0787 24.4112 95.1489 24.02 95.338L23.511 94.178C24.1114 93.9165 24.772 93.8246 25.421 93.912C26.0931 93.9982 26.7309 94.2588 27.271 94.668V94.668ZM10.257 88.384L16.23 83.525L17.028 84.506L12.77 87.97L17.252 87.344L17.349 87.464L15.815 91.732L20.082 88.262L20.88 89.242L14.907 94.102L14.047 93.043L15.568 88.813L11.11 89.433L10.257 88.383V88.384ZM10.22 74.077C11.242 74.453 11.987 75.146 12.455 76.157C12.924 77.169 12.971 78.189 12.599 79.218C12.217 80.244 11.52 80.99 10.509 81.458C9.49699 81.927 8.47999 81.973 7.45799 81.598C6.42599 81.218 5.67599 80.523 5.20799 79.511C4.73999 78.5 4.69699 77.481 5.07799 76.456C5.45099 75.427 6.14299 74.679 7.15499 74.211C8.16599 73.743 9.18799 73.698 10.22 74.077V74.077ZM11.446 78.77C11.697 78.072 11.661 77.374 11.337 76.675C11.014 75.976 10.507 75.5 9.81499 75.246C9.11499 74.989 8.40499 75.026 7.68499 75.359C6.96699 75.692 6.48199 76.207 6.23199 76.905C5.97099 77.599 6.00199 78.295 6.32599 78.995C6.64899 79.693 7.16099 80.171 7.86199 80.428C8.55299 80.682 9.25799 80.643 9.97699 80.31C10.696 79.978 11.186 79.464 11.447 78.77H11.446ZM0.906991 64.96L2.08999 64.707L2.54299 66.826L8.88999 65.468L9.15399 66.705L2.80799 68.063L3.26399 70.193L2.07999 70.445L0.906991 64.96V64.96ZM0.314991 56.132C0.310991 55.406 0.549991 54.8 1.03099 54.312C1.51199 53.819 2.11099 53.569 2.83099 53.565C3.54099 53.561 4.14499 53.803 4.63899 54.292C5.12599 54.772 5.37099 55.376 5.37499 56.102L5.38499 57.675L8.02499 57.66L8.03199 58.925L0.331991 58.97L0.314991 56.132V56.132ZM4.18699 56.109C4.19154 55.9374 4.16017 55.7667 4.09491 55.608C4.02964 55.4492 3.93191 55.3058 3.80799 55.187C3.54999 54.947 3.22699 54.827 2.83799 54.83C2.44899 54.832 2.13099 54.955 1.88299 55.199C1.75752 55.3175 1.65873 55.4614 1.5932 55.621C1.52768 55.7807 1.49693 55.9525 1.50299 56.125L1.51299 57.698L4.19699 57.682L4.18699 56.109V56.109ZM7.65599 47.143L8.32999 43.8L9.51599 44.04L8.59199 48.622L1.04399 47.1L1.95699 42.571L3.14399 42.811L2.47999 46.099L4.44299 46.495L5.05199 43.475L6.22699 43.713L5.61799 46.732L7.65599 47.143V47.143ZM5.81599 31.907L6.93299 32.372L6.09899 34.372L12.089 36.87L11.602 38.037L5.61199 35.54L4.77399 37.55L3.65699 37.085L5.81599 31.907ZM12.534 25.803C12.944 25.204 13.488 24.843 14.167 24.721C14.844 24.589 15.477 24.724 16.063 25.125C16.657 25.531 17.014 26.073 17.136 26.752C17.263 27.425 17.121 28.061 16.711 28.66L15.109 31.002L8.75299 26.655L9.46699 25.611L11.647 27.101L12.534 25.803V25.803ZM15.73 27.989C15.941 27.681 16.012 27.356 15.943 27.015C15.868 26.671 15.67 26.389 15.349 26.169C15.029 25.949 14.697 25.869 14.354 25.929C14.1833 25.9549 14.02 26.0169 13.8752 26.1109C13.7303 26.2048 13.6072 26.3286 13.514 26.474L12.627 27.772L14.842 29.288L15.73 27.989V27.989ZM34.44 8.784C34.82 8.787 35.165 8.883 35.475 9.07C35.785 9.258 36.031 9.531 36.215 9.89C36.501 10.452 36.541 11.021 36.332 11.597C36.124 12.172 35.732 12.607 35.158 12.9L32.218 14.401L28.718 7.543L31.441 6.153C32.002 5.866 32.569 5.807 33.141 5.976C33.717 6.136 34.143 6.486 34.419 7.028C34.723 7.622 34.729 8.208 34.439 8.784H34.44ZM31.98 7.211L30.384 8.026L31.304 9.829L32.901 9.013C33.0186 8.95629 33.1234 8.87611 33.2089 8.7774C33.2943 8.67868 33.3587 8.56352 33.398 8.439C33.478 8.175 33.453 7.917 33.323 7.662C33.2661 7.54236 33.1852 7.43565 33.0855 7.34845C32.9857 7.26125 32.8692 7.19541 32.743 7.155C32.6191 7.11046 32.4873 7.09244 32.356 7.10208C32.2248 7.11173 32.097 7.14884 31.981 7.211H31.98ZM34.618 11.842C34.7418 11.7823 34.8518 11.6972 34.9407 11.5923C35.0296 11.4874 35.0954 11.365 35.134 11.233C35.22 10.95 35.194 10.675 35.058 10.407C34.9967 10.28 34.9101 10.167 34.8035 10.0748C34.6968 9.98263 34.5725 9.91326 34.438 9.871C34.3086 9.82165 34.1701 9.80067 34.032 9.80947C33.8938 9.81827 33.7591 9.85664 33.637 9.922L31.825 10.848L32.805 12.768L34.618 11.842ZM46.108 9.098L44.818 4.035L42.59 9.994L41.63 10.238L39.73 2.777L40.956 2.464L42.246 7.528L44.473 1.568L45.433 1.324L47.333 8.786L46.108 9.098V9.098ZM58.344 6.8L59.169 6.785L59.216 9.468L57.952 9.491L57.925 8.017L53.251 8.1L53.277 9.574L52.012 9.597L51.965 6.913L52.679 6.9C53.116 6.306 53.324 5.418 53.303 4.238L53.235 0.398998L58.228 0.309998L58.344 6.8V6.8ZM54.065 6.876L57.079 6.822L56.984 1.521L54.521 1.565L54.568 4.237C54.588 5.381 54.421 6.261 54.065 6.876ZM65.248 7.666L68.593 8.33L68.357 9.517L63.772 8.607L65.271 1.054L69.802 1.954L69.567 3.14L66.276 2.487L65.886 4.451L68.907 5.051L68.674 6.226L65.653 5.626L65.248 7.666ZM79.184 12.591C78.167 12.982 77.15 12.951 76.131 12.498C75.113 12.044 74.405 11.308 74.008 10.288C73.621 9.265 73.653 8.245 74.106 7.226C74.56 6.208 75.294 5.503 76.311 5.113C77.337 4.719 78.359 4.748 79.378 5.201C80.396 5.654 81.099 6.393 81.487 7.416C81.884 8.436 81.856 9.454 81.403 10.473C80.95 11.491 80.21 12.197 79.183 12.591H79.184ZM75.171 9.867C75.441 10.557 75.929 11.059 76.632 11.372C77.336 11.685 78.032 11.709 78.719 11.445C79.416 11.178 79.925 10.682 80.247 9.958C80.569 9.235 80.595 8.528 80.324 7.838C80.063 7.143 79.581 6.64 78.877 6.327C78.174 6.014 77.473 5.991 76.777 6.259C76.089 6.523 75.584 7.017 75.262 7.74C74.94 8.464 74.91 9.173 75.171 9.867V9.867ZM95.683 28.758C95.013 27.813 94.767 26.809 94.947 25.746C95.133 24.678 95.687 23.817 96.607 23.163C97.527 22.509 98.52 22.273 99.583 22.453C100.652 22.628 101.523 23.188 102.194 24.133C102.597 24.701 102.834 25.319 102.905 25.989C102.984 26.6393 102.883 27.2988 102.614 27.896L101.456 27.369C101.648 26.98 101.719 26.561 101.669 26.111C101.627 25.6536 101.461 25.2163 101.189 24.846C100.714 24.176 100.115 23.783 99.393 23.666C98.676 23.556 97.991 23.732 97.339 24.195C96.688 24.657 96.296 25.245 96.165 25.96C96.038 26.68 96.212 27.375 96.688 28.044C96.968 28.439 97.312 28.734 97.721 28.929C98.136 29.121 98.556 29.186 98.981 29.127L99.107 30.387C98.455 30.4499 97.7982 30.333 97.208 30.049C96.5957 29.7592 96.0699 29.3141 95.683 28.758V28.758ZM103.342 41.534C102.347 41.093 101.648 40.352 101.247 39.312C100.846 38.272 100.864 37.251 101.303 36.249C101.751 35.25 102.495 34.551 103.535 34.149C104.575 33.749 105.592 33.768 106.588 34.209C107.593 34.655 108.296 35.397 108.697 36.437C109.099 37.477 109.075 38.497 108.627 39.494C108.189 40.497 107.45 41.199 106.41 41.6C105.37 42.001 104.347 41.98 103.342 41.534ZM102.424 36.771C102.128 37.451 102.119 38.151 102.396 38.869C102.674 39.587 103.149 40.095 103.822 40.394C104.505 40.696 105.215 40.704 105.954 40.42C106.693 40.135 107.21 39.652 107.506 38.972C107.811 38.296 107.825 37.599 107.548 36.881C107.271 36.162 106.791 35.651 106.108 35.349C105.435 35.051 104.729 35.044 103.99 35.329C103.251 35.615 102.729 36.095 102.424 36.771V36.771ZM107.673 65.554C107.187 66.274 106.516 66.571 105.66 66.443C104.993 66.343 104.487 66.008 104.142 65.438C103.804 64.875 103.695 64.188 103.817 63.376C104.025 61.983 104.75 61.15 105.992 60.876L106.451 62.046C105.612 62.15 105.126 62.652 104.991 63.551C104.92 64.03 104.967 64.411 105.132 64.696C105.304 64.981 105.564 65.15 105.913 65.202C106.254 65.252 106.544 65.17 106.784 64.954C107.03 64.746 107.186 64.421 107.252 63.978L107.39 63.054L108.522 63.223L108.421 63.897C108.357 64.325 108.405 64.673 108.565 64.942C108.725 65.211 108.968 65.369 109.295 65.418C109.621 65.467 109.895 65.396 110.116 65.208C110.344 65.018 110.489 64.722 110.55 64.315C110.662 63.561 110.394 63.002 109.744 62.638L110.523 61.664C111.508 62.316 111.909 63.258 111.725 64.491C111.613 65.238 111.319 65.813 110.844 66.217C110.375 66.621 109.819 66.775 109.173 66.679C108.455 66.571 107.955 66.196 107.673 65.554V65.554ZM104.319 76.827C104.049 77.0732 103.717 77.2406 103.359 77.311C103.004 77.38 102.637 77.343 102.26 77.201C101.67 76.977 101.259 76.581 101.027 76.016C100.794 75.449 100.793 74.864 101.021 74.261L102.19 71.175L109.391 73.903L108.307 76.763C108.084 77.353 107.704 77.777 107.166 78.036C106.913 78.1683 106.634 78.244 106.348 78.2578C106.063 78.2716 105.778 78.2232 105.513 78.116C104.889 77.879 104.491 77.449 104.319 76.827V76.827ZM107.196 76.341L107.832 74.665L105.939 73.948L105.304 75.624C105.255 75.7452 105.231 75.8751 105.234 76.0059C105.237 76.1366 105.267 76.2653 105.322 76.384C105.439 76.632 105.632 76.807 105.899 76.909C106.021 76.9594 106.153 76.9841 106.285 76.9817C106.418 76.9793 106.548 76.9498 106.669 76.895C106.791 76.8451 106.901 76.77 106.991 76.6747C107.082 76.5794 107.152 76.4661 107.196 76.342V76.341ZM102.132 74.681C102.08 74.8086 102.056 74.9457 102.061 75.0834C102.065 75.221 102.099 75.3562 102.159 75.48C102.285 75.747 102.489 75.934 102.77 76.04C103.051 76.147 103.324 76.14 103.589 76.022C103.718 75.9716 103.835 75.8939 103.931 75.7944C104.028 75.6948 104.102 75.5757 104.148 75.445L104.869 73.542L102.853 72.779L102.132 74.682V74.681ZM102.083 88.411L101.388 89.481L97.891 84.364C97.036 83.109 97 81.954 97.782 80.896L98.769 81.538C98.497 81.876 98.362 82.205 98.366 82.522C98.366 82.845 98.494 83.186 98.751 83.545L104.713 84.361L104.018 85.431L99.596 84.789L102.083 88.411V88.411ZM87.756 92.973L88.826 91.912L93.562 92.376L90.982 89.774L91.881 88.884L97.302 94.352L96.404 95.242L93.972 92.79L94.326 97.303L93.256 98.364L92.826 93.508L87.756 92.973V92.973ZM79.25 99.95C79.505 98.891 80.107 98.071 81.058 97.488C82.008 96.906 83.016 96.741 84.081 96.991C85.144 97.252 85.966 97.858 86.548 98.808C87.13 99.759 87.294 100.764 87.04 101.822C86.783 102.891 86.179 103.717 85.228 104.299C84.278 104.881 83.271 105.042 82.208 104.781C81.144 104.53 80.32 103.93 79.738 102.979C79.156 102.028 78.993 101.019 79.25 99.95V99.95ZM83.77 98.188C83.047 98.02 82.358 98.137 81.701 98.539C81.045 98.941 80.631 99.5 80.458 100.216C80.284 100.942 80.403 101.643 80.817 102.318C81.23 102.994 81.798 103.416 82.52 103.584C83.24 103.762 83.928 103.65 84.585 103.248C85.242 102.846 85.657 102.282 85.832 101.556C86.004 100.84 85.883 100.144 85.47 99.469C85.056 98.794 84.49 98.367 83.77 98.188V98.188ZM68.845 110.941L66.569 103.585L67.778 103.211L69.4 108.455L70.494 104.064L70.641 104.018L74.027 107.035L72.401 101.781L73.61 101.407L75.886 108.763L74.583 109.166L71.228 106.174L70.138 110.541L68.845 110.941V110.941Z" fill="white"/>
</svg>
