<svg width="70" height="70" viewBox="0 0 70 70" fill="none" xmlns="http://www.w3.org/2000/svg">
<path d="M31.155 27L31.435 26.585C31.3598 26.5341 31.2721 26.5047 31.1814 26.4999C31.0907 26.4952 31.0004 26.5152 30.9202 26.5578C30.84 26.6005 30.7729 26.6642 30.7262 26.7421C30.6795 26.82 30.6549 26.9092 30.655 27H31.155ZM31.155 43H30.655C30.6551 43.0907 30.6798 43.1798 30.7266 43.2575C30.7734 43.3353 30.8405 43.3989 30.9206 43.4414C31.0008 43.4839 31.091 43.5039 31.1816 43.499C31.2722 43.4942 31.3598 43.4648 31.435 43.414L31.155 43ZM43.012 35L43.292 35.414C43.3597 35.3682 43.4151 35.3065 43.4534 35.2343C43.4916 35.1622 43.5117 35.0817 43.5117 35C43.5117 34.9183 43.4916 34.8378 43.4534 34.7657C43.4151 34.6935 43.3597 34.6318 43.292 34.586L43.012 35ZM35.012 68.5C16.51 68.5 1.51202 53.502 1.51202 35H0.512024C0.512024 54.054 15.958 69.5 35.012 69.5V68.5ZM68.512 35C68.512 53.502 53.513 68.5 35.012 68.5V69.5C54.065 69.5 69.512 54.054 69.512 35H68.512ZM35.012 1.5C53.513 1.5 68.512 16.498 68.512 35H69.512C69.512 15.946 54.065 0.5 35.012 0.5V1.5ZM35.012 0.5C15.958 0.5 0.512024 15.946 0.512024 35H1.51202C1.51202 16.498 16.51 1.5 35.012 1.5V0.5ZM30.655 27V43H31.655V27H30.655ZM31.435 43.414L43.291 35.414L42.732 34.586L30.875 42.586L31.435 43.414V43.414ZM43.291 34.586L31.434 26.586L30.874 27.415L42.732 35.415L43.292 34.585L43.291 34.586Z" fill="white"/>
</svg>
