<svg width="15" height="16" viewBox="0 0 15 16" fill="none" xmlns="http://www.w3.org/2000/svg">
<g clip-path="url(#clip0)">
<path d="M3.05652 10.6357C4.53601 12.5222 6.31699 14.0075 8.34973 15.0584C9.12366 15.4496 10.1587 15.9138 11.3118 15.9934C11.3833 15.9967 11.4517 16 11.5232 16C12.2971 16 12.9187 15.7149 13.4254 15.1281C13.4285 15.1247 13.4347 15.1181 13.4378 15.1115C13.6181 14.8794 13.8232 14.6705 14.0377 14.4484C14.1838 14.2992 14.3329 14.1434 14.4759 13.9843C15.138 13.2482 15.138 12.3133 14.4697 11.6005L12.6017 9.60796C12.2847 9.25653 11.9055 9.07087 11.5076 9.07087C11.1098 9.07087 10.7275 9.25653 10.4011 9.60464L9.28839 10.7915C9.18582 10.7286 9.08015 10.6722 8.98069 10.6191C8.85636 10.5528 8.74136 10.4898 8.63879 10.4202C7.62553 9.73394 6.70551 8.83879 5.8259 7.68835C5.38143 7.08827 5.08305 6.58433 4.8748 6.07045C5.16697 5.78864 5.44049 5.49358 5.70468 5.20514C5.79793 5.10236 5.89428 4.99959 5.99063 4.89681C6.32631 4.53875 6.50659 4.12433 6.50659 3.70327C6.50659 3.28222 6.32942 2.8678 5.99063 2.50974L5.0644 1.52176C4.95561 1.40572 4.85304 1.293 4.74737 1.17696C4.54223 0.951513 4.32776 0.719436 4.11641 0.510568C3.79627 0.175715 3.42018 0 3.02233 0C2.6276 0 2.2484 0.175715 1.91583 0.513883L0.753374 1.75383C0.330664 2.20472 0.091335 2.75176 0.0416043 3.385C-0.0174508 4.17737 0.119308 5.01948 0.473639 6.0373C1.01757 7.6121 1.83812 9.07418 3.05652 10.6357ZM0.799997 3.45462C0.837295 3.01368 0.995811 2.64567 1.29419 2.32739L2.45043 1.09407C2.63071 0.908413 2.82963 0.812267 3.02233 0.812267C3.21193 0.812267 3.40464 0.908413 3.5818 1.1007C3.79005 1.30626 3.98587 1.52176 4.19722 1.75052C4.3029 1.86656 4.41168 1.98259 4.52047 2.10195L5.4467 3.08993C5.63941 3.29548 5.73887 3.50435 5.73887 3.7099C5.73887 3.91546 5.63941 4.12433 5.4467 4.32988C5.35035 4.43266 5.254 4.53875 5.15764 4.64152C4.86858 4.95317 4.59817 5.24824 4.29979 5.53005C4.29357 5.53668 4.29047 5.53999 4.28425 5.54662C4.02627 5.8218 4.06668 6.08371 4.12884 6.28264C4.13195 6.29258 4.13506 6.29921 4.13817 6.30916C4.37749 6.9225 4.71007 7.50601 5.22913 8.20224C6.16158 9.42893 7.14376 10.3804 8.2254 11.1131C8.35905 11.206 8.50203 11.2789 8.63568 11.3518C8.76001 11.4182 8.87501 11.4811 8.97758 11.5508C8.99001 11.5574 8.99934 11.564 9.01177 11.5707C9.11434 11.627 9.2138 11.6535 9.31326 11.6535C9.56191 11.6535 9.72354 11.4845 9.77638 11.4281L10.9388 10.1881C11.1191 9.99586 11.3149 9.89308 11.5076 9.89308C11.7438 9.89308 11.9366 10.0489 12.0578 10.1881L13.932 12.184C14.305 12.5818 14.3019 13.0128 13.9227 13.4339C13.7921 13.5831 13.6554 13.7257 13.5093 13.8748C13.2917 14.1003 13.0648 14.3324 12.8597 14.5943C12.5022 15.0054 12.0764 15.1977 11.5263 15.1977C11.4734 15.1977 11.4175 15.1944 11.3646 15.191C10.3452 15.1214 9.39718 14.6971 8.68541 14.3357C6.75213 13.3378 5.05507 11.9221 3.64708 10.1252C2.48773 8.63655 1.70758 7.25072 1.19163 5.76544C0.871484 4.85371 0.750266 4.12101 0.799997 3.45462Z" fill="white"/>
</g>
<defs>
<clipPath id="clip0">
<rect width="15" height="16" fill="white"/>
</clipPath>
</defs>
</svg>
