<svg width="24" height="22" viewBox="0 0 24 22" fill="none" xmlns="http://www.w3.org/2000/svg">
<path d="M0.421975 10.401L5.91998 12.454L8.04798 19.298C8.18498 19.737 8.72097 19.898 9.07697 19.608L12.142 17.109C12.2983 16.9817 12.4922 16.9097 12.6937 16.9041C12.8952 16.8985 13.0929 16.9596 13.256 17.078L18.785 21.092C19.165 21.368 19.705 21.16 19.8 20.7L23.85 1.22001C23.8738 1.1059 23.8665 0.987463 23.8286 0.877189C23.7908 0.766915 23.724 0.668885 23.6351 0.593431C23.5462 0.517977 23.4387 0.467894 23.3237 0.44846C23.2088 0.429026 23.0907 0.440961 22.982 0.483007L0.414975 9.19001C0.292868 9.23766 0.188083 9.32123 0.114455 9.42967C0.0408261 9.53812 0.00181604 9.66634 0.00257432 9.79741C0.00333261 9.92849 0.0438236 10.0563 0.118702 10.1638C0.19358 10.2714 0.299325 10.3538 0.421975 10.4V10.401ZM7.70498 11.361L18.452 4.74201C18.645 4.62401 18.844 4.88501 18.678 5.03901L9.80898 13.283C9.49697 13.573 9.29598 13.961 9.23898 14.383L8.93698 16.622C8.89698 16.921 8.47698 16.95 8.39498 16.661L7.23298 12.578C7.09998 12.113 7.29297 11.615 7.70498 11.361Z" fill="white"/>
</svg>
