<svg width="487" height="487" viewBox="0 0 487 487" fill="none" xmlns="http://www.w3.org/2000/svg">
<path d="M249.858 265.783C248.957 265.588 248.032 265.553 247.12 265.69C237.973 264.625 231.073 256.886 231.057 247.681C231.057 243.27 227.481 239.693 223.069 239.693C218.658 239.693 215.081 243.27 215.081 247.681C215.104 263.053 225.386 276.517 240.208 280.586V288.574C240.208 292.985 243.785 296.562 248.196 296.562C252.608 296.562 256.184 292.985 256.184 288.574V281.069C273.292 277.489 284.919 261.555 283.121 244.171C281.319 226.786 266.673 213.575 249.195 213.571C239.178 213.571 231.057 205.45 231.057 195.434C231.057 185.418 239.178 177.297 249.195 177.297C259.211 177.297 267.332 185.418 267.332 195.434C267.332 199.845 270.909 203.422 275.32 203.422C279.732 203.422 283.308 199.845 283.308 195.434C283.285 179.294 271.977 165.373 256.184 162.042V154.771C256.184 150.36 252.608 146.783 248.196 146.783C243.785 146.783 240.208 150.36 240.208 154.771V162.529C223.725 167.031 213.115 183.034 215.385 199.97C217.655 216.906 232.107 229.548 249.195 229.544C259.079 229.544 267.141 237.458 267.32 247.338C267.504 257.218 259.734 265.424 249.858 265.783V265.783Z" fill="#BE8D55"/>
<path d="M133.358 222.172C133.358 286.148 185.219 338.009 249.195 338.009C313.171 338.009 365.031 286.148 365.031 222.172C365.031 158.196 313.171 106.335 249.195 106.335C185.25 106.405 133.432 158.227 133.358 222.172ZM249.195 122.311C304.348 122.311 349.055 167.019 349.055 222.172C349.055 277.325 304.348 322.032 249.195 322.032C194.042 322.032 149.334 277.325 149.334 222.172C149.397 167.046 194.069 122.374 249.195 122.311Z" fill="#BE8D55"/>
<path d="M404.411 357.702L341.835 387.268C333.196 371.198 316.622 360.971 298.384 360.456L240.618 358.868C231.471 358.607 222.496 356.29 214.363 352.089L208.485 349.043C178.389 333.355 142.516 333.394 112.451 349.144L112.818 335.828C112.939 331.417 109.464 327.742 105.052 327.622L41.7081 325.878C37.2966 325.757 33.6263 329.232 33.5053 333.644L29.679 472.65C29.5581 477.061 33.0334 480.735 37.4448 480.856L100.789 482.6H101.007C105.337 482.6 108.878 479.156 108.995 474.83L109.179 468.18L125.635 459.368C132.094 455.893 139.646 455.066 146.702 457.063L244.97 484.644C245.142 484.694 245.314 484.733 245.489 484.772C252.592 486.258 259.831 487.003 267.086 487C282.454 487.007 297.643 483.696 311.61 477.283C311.954 477.127 312.285 476.944 312.601 476.737L455.082 384.577C458.632 382.279 459.778 377.618 457.699 373.936C447.121 355.167 423.66 348.017 404.411 357.702V357.702ZM45.8699 465.106L49.2555 342.069L96.627 343.372L93.2414 466.413L45.8699 465.106ZM304.414 463.015C287.061 470.848 267.679 473.008 249.027 469.198L151.023 441.688C139.993 438.571 128.186 439.862 118.095 445.288L109.686 449.793L111.936 367.988C138.585 350.264 172.761 348.442 201.141 363.229L207.019 366.275C217.293 371.58 228.624 374.505 240.181 374.841L297.951 376.428C314.177 376.896 327.957 388.45 331.249 404.348L245.201 401.973C240.789 401.852 237.119 405.331 236.994 409.739C236.873 414.15 240.352 417.824 244.76 417.945L339.721 420.559H339.944C344.269 420.555 347.807 417.111 347.924 412.789C348.021 409.317 347.764 405.842 347.152 402.425L411.334 372.099C411.397 372.072 411.459 372.04 411.521 372.009C420.625 367.403 431.632 368.943 439.121 375.875L304.414 463.015Z" fill="#BE8D55"/>
<path d="M257.183 83.8762V7.98821C257.183 3.57675 253.606 0 249.195 0C244.783 0 241.207 3.57675 241.207 7.98821V83.8762C241.207 88.2876 244.783 91.8644 249.195 91.8644C253.606 91.8644 257.183 88.2876 257.183 83.8762Z" fill="#BE8D55"/>
<path d="M317.094 83.8761V47.9291C317.094 43.5177 313.518 39.9409 309.106 39.9409C304.695 39.9409 301.118 43.5177 301.118 47.9291V83.8761C301.118 88.2875 304.695 91.8643 309.106 91.8643C313.518 91.8643 317.094 88.2875 317.094 83.8761Z" fill="#BE8D55"/>
<path d="M197.271 83.8761V47.9291C197.271 43.5177 193.695 39.9409 189.283 39.9409C184.872 39.9409 181.295 43.5177 181.295 47.9291V83.8761C181.295 88.2875 184.872 91.8643 189.283 91.8643C193.695 91.8643 197.271 88.2875 197.271 83.8761Z" fill="#BE8D55"/>
</svg>
