<svg width="220" height="220" viewBox="0 0 220 220" fill="none" xmlns="http://www.w3.org/2000/svg">
<g clip-path="url(#clip0)">
<path d="M202.314 154.591L179.991 141.703L199.336 130.296C202.904 128.192 204.091 123.594 201.987 120.026C199.883 116.459 195.286 115.272 191.717 117.375L165.069 133.088L124.89 109.89L165.062 86.696L191.718 102.407C192.913 103.112 194.225 103.446 195.519 103.446C198.087 103.446 200.588 102.126 201.987 99.753C204.09 96.185 202.902 91.587 199.334 89.483L179.986 78.08L202.314 65.189C205.901 63.118 207.13 58.531 205.059 54.944C202.988 51.356 198.401 50.127 194.814 52.199L172.491 65.088L172.288 42.627C172.251 38.485 168.853 35.138 164.721 35.195C160.579 35.232 157.251 38.62 157.289 42.762L157.568 73.703L117.391 96.9V50.51L144.328 35.286C147.934 33.248 149.205 28.673 147.167 25.066C145.129 21.46 140.553 20.188 136.947 22.227L117.391 33.28V7.5C117.391 3.358 114.033 0 109.891 0C105.749 0 102.391 3.358 102.391 7.5V33.28L82.8349 22.228C79.2269 20.189 74.6539 21.46 72.6149 25.067C70.5769 28.673 71.8479 33.249 75.4539 35.287L102.39 50.511V96.9L62.2129 73.703L62.4919 42.762C62.5299 38.62 59.2019 35.232 55.0599 35.195C55.0369 35.195 55.0149 35.195 54.9909 35.195C50.8809 35.195 47.5299 38.508 47.4929 42.628L47.2899 65.088L24.9669 52.199C21.3799 50.127 16.7929 51.357 14.7219 54.944C12.6509 58.531 13.8799 63.118 17.4669 65.189L39.7939 78.08L20.4429 89.485C16.8749 91.588 15.6869 96.186 17.7899 99.755C19.1889 102.128 21.6899 103.448 24.2589 103.448C25.5529 103.448 26.8639 103.113 28.0599 102.409L54.7189 86.698L94.8919 109.892L54.7119 133.09L28.0599 117.374C24.4939 115.271 19.8939 116.457 17.7899 120.025C15.6859 123.593 16.8729 128.191 20.4409 130.294L39.7889 141.702L17.4659 154.59C13.8789 156.661 12.6499 161.248 14.7209 164.835C16.1099 167.241 18.6309 168.586 21.2229 168.586C22.4949 168.586 23.7849 168.262 24.9659 167.58L47.2889 154.691L47.4919 177.153C47.5289 181.272 50.8799 184.586 54.9899 184.586C55.0129 184.586 55.0359 184.586 55.0589 184.585C59.2009 184.548 62.5289 181.16 62.4909 177.018L62.2119 146.076L102.39 122.879V169.27L75.4539 184.494C71.8479 186.532 70.5769 191.107 72.6149 194.714C73.9939 197.154 76.5349 198.525 79.1509 198.525C80.4009 198.525 81.6689 198.212 82.8349 197.553L102.391 186.501V212.281C102.391 216.423 105.749 219.781 109.891 219.781C114.033 219.781 117.391 216.423 117.391 212.281V186.501L136.947 197.553C138.113 198.212 139.38 198.525 140.631 198.525C143.247 198.525 145.788 197.154 147.167 194.714C149.205 191.108 147.934 186.532 144.328 184.494L117.391 169.27V122.88L157.568 146.076L157.282 177.017C157.243 181.159 160.57 184.548 164.712 184.586C164.736 184.587 164.759 184.587 164.783 184.587C168.892 184.587 172.243 181.274 172.281 177.156L172.489 154.691L194.815 167.581C195.996 168.263 197.286 168.587 198.558 168.587C201.15 168.587 203.671 167.241 205.06 164.836C207.131 161.249 205.902 156.662 202.314 154.591Z" fill="#BE8D55"/>
</g>
<defs>
<clipPath id="clip0">
<rect width="219.781" height="219.781" fill="white"/>
</clipPath>
</defs>
</svg>
