<svg width="512" height="512" viewBox="0 0 512 512" fill="none" xmlns="http://www.w3.org/2000/svg">
<g clip-path="url(#clip0)">
<path d="M302.122 355.941C296.605 355.941 292.128 360.418 292.128 365.935C292.128 371.452 296.605 375.929 302.122 375.929C307.639 375.929 312.116 371.452 312.116 365.935C312.117 360.419 307.639 355.941 302.122 355.941Z" fill="#BE8D55"/>
<path d="M422.052 355.941H342.099C336.58 355.941 332.105 360.415 332.105 365.935C332.105 371.455 336.58 375.929 342.099 375.929H422.052C427.571 375.929 432.046 371.455 432.046 365.935C432.046 360.415 427.571 355.941 422.052 355.941Z" fill="#BE8D55"/>
<path d="M472.024 117.088V91.0959C472.024 81.7479 468.386 72.9639 461.781 66.3589C455.177 59.7539 446.392 56.1159 437.044 56.1159C429.484 56.1159 422.484 58.5349 416.757 62.6269C410.573 52.7259 399.582 46.1219 387.073 46.1219C379.521 46.1219 372.528 48.5359 366.804 52.6199C365.406 50.3819 363.751 48.2829 361.838 46.3709C355.233 39.7659 346.448 36.1279 337.101 36.1279C327.321 36.1279 318.47 40.1679 312.116 46.6609C305.762 40.1689 296.911 36.1279 287.131 36.1279C267.843 36.1279 252.151 51.8199 252.151 71.1069V116.081H154.03C144.462 101.822 130.831 90.3769 115.101 83.5399C103.759 78.6059 91.698 76.1039 79.253 76.1039C47.275 76.1039 17.437 93.3079 1.387 121.004C-0.393002 124.075 -0.410002 127.861 1.343 130.949C3.096 134.037 6.355 135.963 9.904 136.009C14.606 136.07 19.289 136.07 19.289 136.07H55.125L69.26 150.203V181.9L55.125 196.034H9.994C6.422 196.034 3.121 197.941 1.336 201.036C-0.448002 204.131 -0.445002 207.943 1.345 211.035C17.398 238.771 47.251 256 79.253 256C109.288 256 137.429 240.823 154.05 216.023H206.75C210.248 225.234 215.66 233.643 222.669 240.65L257.508 275.491C266.943 284.926 272.141 297.473 272.141 310.819V315.966H262.147C256.628 315.966 252.153 320.44 252.153 325.96V465.878C252.153 471.398 256.628 475.872 262.147 475.872H462.03C467.549 475.872 472.024 471.398 472.024 465.878V325.96C472.024 320.44 467.549 315.966 462.03 315.966H452.036V308.33C452.036 295.958 454.818 283.497 460.08 272.298C468.117 255.216 472.024 239.597 472.024 224.549V215.019C494.806 210.376 512.001 190.187 512.001 166.054C512.001 141.921 494.806 121.731 472.024 117.088ZM139.864 201.022C127.371 222.604 104.147 236.012 79.253 236.012C60.791 236.012 43.248 228.638 30.319 216.024H59.265C61.915 216.024 64.457 214.971 66.332 213.097L86.32 193.109C88.194 191.235 89.247 188.693 89.247 186.042V146.065C89.247 143.414 88.194 140.872 86.32 138.997L66.332 119.009C64.457 117.135 61.916 116.082 59.265 116.082H30.319C43.244 103.468 60.79 96.0939 79.253 96.0939C88.938 96.0939 98.317 98.0379 107.131 101.872C120.769 107.801 132.393 118.174 139.863 131.083C145.979 141.663 149.213 153.756 149.213 166.055C149.212 178.342 145.978 190.437 139.864 201.022ZM422.052 91.0959C422.052 82.8299 428.776 76.1049 437.043 76.1049C441.051 76.1049 444.815 77.6629 447.646 80.4929C450.475 83.3229 452.034 87.0879 452.034 91.0959V141.067C452.034 149.333 445.309 156.058 437.043 156.058C428.777 156.058 422.052 149.333 422.052 141.067V91.0959ZM372.081 126.076V81.1019C372.081 72.8359 378.805 66.1109 387.072 66.1109C395.338 66.1109 402.063 72.8359 402.063 81.1019V91.0959V141.067C402.063 149.333 395.338 156.058 387.072 156.058C383.064 156.058 379.3 154.5 376.469 151.67C373.64 148.84 372.081 145.075 372.081 141.067V126.076ZM322.111 71.1079C322.111 62.8419 328.835 56.1169 337.102 56.1169C341.11 56.1169 344.874 57.6749 347.705 60.5049C350.534 63.3349 352.093 67.0999 352.093 71.1079V81.1019V116.081H322.111V71.1079ZM272.14 71.1079C272.14 62.8419 278.865 56.1169 287.131 56.1169C295.397 56.1169 302.122 62.8419 302.122 71.1079V116.082H272.14V71.1079ZM202.181 186.041V191.188C202.181 192.806 202.243 194.422 202.356 196.035H164.055C167.437 186.449 169.201 176.304 169.201 166.053C169.201 155.797 167.439 145.653 164.058 136.071H223.201C220.67 138.54 218.315 141.208 216.171 144.067C207.15 156.1 202.181 171.007 202.181 186.041ZM452.035 455.883H272.14V335.953H282.134H442.04H452.034V455.883H452.035ZM452.035 224.546C452.035 236.59 448.749 249.425 441.99 263.792C435.485 277.638 432.047 293.038 432.047 308.329V315.964H292.128V310.817C292.128 292.132 284.852 274.566 271.641 261.355L236.801 226.514C230.462 220.176 225.942 212.237 223.727 203.55C222.694 199.51 222.169 195.351 222.169 191.185V186.038C222.169 175.299 225.719 164.652 232.164 156.055C241.549 143.54 256.493 136.068 272.14 136.068H350.805C349.04 142.955 345.475 149.24 340.378 154.336C332.823 161.891 322.787 166.05 312.117 166.05H282.135C276.95 166.05 272.626 170.015 272.178 175.181C271.73 180.346 275.307 184.996 280.414 185.889C296.924 188.774 311.292 197.952 320.87 211.731C320.892 211.762 320.918 211.789 320.94 211.82C328.111 222.188 331.938 234.335 332.005 246.954L332.105 266.043C332.134 271.545 336.602 275.985 342.098 275.985C342.116 275.985 342.133 275.985 342.151 275.985C347.671 275.956 352.122 271.459 352.093 265.939L351.993 246.849C351.936 236.163 349.829 225.738 345.835 216.02H452.036V224.546H452.035ZM462.029 196.035H334.093C330.883 191.99 327.34 188.29 323.506 184.966C335.179 182.731 345.918 177.067 354.512 168.473C356.337 166.648 358.025 164.715 359.585 162.699C360.437 163.777 361.349 164.818 362.335 165.804C368.939 172.409 377.724 176.047 387.072 176.047C396.852 176.047 405.703 172.007 412.057 165.514C418.411 172.006 427.262 176.047 437.042 176.047C456.33 176.047 472.021 160.355 472.021 141.068V137.79C483.654 141.915 492.01 153.023 492.01 166.052C492.011 182.585 478.561 196.035 462.029 196.035Z" fill="#BE8D55"/>
</g>
<defs>
<clipPath id="clip0">
<rect width="512.001" height="512.001" fill="white"/>
</clipPath>
</defs>
</svg>
