<svg width="512" height="512" viewBox="0 0 512 512" fill="none" xmlns="http://www.w3.org/2000/svg">
<path d="M416 362.36V352C416 347.576 412.416 344 408 344H344C339.584 344 336 347.576 336 352V360H317.832C353 340.504 378.008 304.944 383 263.296C401.712 259.96 416 243.656 416 224C416 204.688 402.232 188.528 384 184.808V176V153.416L415.52 66.736C416.352 64.432 416.088 61.872 414.8 59.784C413.504 57.696 411.32 56.32 408.888 56.048L363.296 50.984C347.584 49.24 332.856 42.968 320.712 32.848L317.704 30.336C300.416 15.928 278.504 8 256 8C233.496 8 211.584 15.928 194.288 30.344L191.288 32.84C179.136 42.968 164.416 49.24 148.704 50.984L103.12 56.048C100.68 56.32 98.504 57.696 97.208 59.784C95.912 61.872 95.648 64.432 96.488 66.736L128 153.416V176V184.808C109.768 188.528 96 204.68 96 224C96 243.656 110.288 259.96 129 263.296C133.992 304.952 159 340.512 194.168 360H176V352C176 347.576 172.416 344 168 344H104C99.584 344 96 347.576 96 352V362.36C72.472 369.312 56 390.856 56 416V496C56 500.424 59.584 504 64 504H448C452.416 504 456 500.424 456 496V416C456 390.856 439.528 369.312 416 362.36ZM352 360H400V376H352V360ZM220.688 376L244.688 400L226.192 418.496L204.944 376H220.688ZM268.688 376L256 388.688L243.312 376H268.688ZM254.096 447.72C254.72 447.872 255.36 448 256 448C256.64 448 257.28 447.872 257.904 447.72L262.936 488H249.056L254.096 447.72ZM256 430.384L244.56 422.76L256 411.32L267.44 422.76L256 430.384ZM267.312 400L291.312 376H307.056L285.808 418.496L267.312 400ZM368 168H144V160H368V168ZM349.04 184C329.312 194.368 307.216 200 284.776 200H227.232C204.792 200 182.696 194.368 162.968 184H349.04ZM400 224C400 234.416 393.288 243.216 384 246.528V201.48C393.288 204.784 400 213.584 400 224ZM150.472 66.888C169.312 64.792 186.968 57.272 201.544 45.128L204.544 42.632C218.96 30.616 237.232 24 256 24C274.768 24 293.04 30.616 307.456 42.624L310.464 45.136C325.032 57.272 342.688 64.792 361.528 66.888L397.008 70.824L370.392 144H141.608L115 70.832L150.472 66.888ZM112 224C112 213.584 118.712 204.784 128 201.472V246.52C118.712 243.216 112 234.416 112 224ZM144 248V191.456C168.728 207.32 197.72 216 227.224 216H284.768C314.28 216 343.264 207.32 367.992 191.456V248C367.992 309.76 317.752 360 255.992 360C194.232 360 144 309.76 144 248V248ZM112 360H160V376H112V360ZM72 416C72 399.736 81.704 385.68 96 379.456V384C96 388.424 99.584 392 104 392H168C172.416 392 176 388.424 176 384V376H187.056L216.848 435.576C218 437.872 220.184 439.48 222.72 439.896C223.144 439.968 223.576 440 224 440C226.104 440 228.144 439.168 229.656 437.656L233.016 434.296L239.136 438.376L232.936 488H72V416ZM440 488H279.064L272.864 438.376L278.984 434.296L282.344 437.656C283.856 439.168 285.896 440 288 440C288.424 440 288.856 439.968 289.28 439.896C291.816 439.48 294 437.872 295.152 435.576L324.944 376H336V384C336 388.424 339.584 392 344 392H408C412.416 392 416 388.424 416 384V379.456C430.296 385.672 440 399.736 440 416V488Z" fill="#BE8D55"/>
<path d="M256 128C278.056 128 296 110.056 296 88C296 65.944 278.056 48 256 48C233.944 48 216 65.944 216 88C216 110.056 233.944 128 256 128ZM256 64C269.232 64 280 74.768 280 88C280 101.232 269.232 112 256 112C242.768 112 232 101.232 232 88C232 74.768 242.768 64 256 64Z" fill="#BE8D55"/>
</svg>
