<svg width="512" height="512" viewBox="0 0 512 512" fill="none" xmlns="http://www.w3.org/2000/svg">
<path d="M489.621 288.166L480 286.176V232C479.993 225.637 477.462 219.537 472.963 215.037C468.463 210.538 462.363 208.007 456 208H408.051L400.938 144H408C410.122 144 412.157 143.157 413.657 141.657C415.157 140.157 416 138.122 416 136C415.988 125.395 411.77 115.228 404.271 107.729C396.772 100.23 386.605 96.0119 376 96H280V80H296C298.122 80 300.157 79.1571 301.657 77.6569C303.157 76.1566 304 74.1217 304 72V40C304 37.8783 303.157 35.8434 301.657 34.3431C300.157 32.8429 298.122 32 296 32H264V24C264 21.8783 263.157 19.8434 261.657 18.3431C260.157 16.8429 258.122 16 256 16C253.878 16 251.843 16.8429 250.343 18.3431C248.843 19.8434 248 21.8783 248 24V32H216C213.878 32 211.843 32.8429 210.343 34.3431C208.843 35.8434 208 37.8783 208 40V72C208 74.1217 208.843 76.1566 210.343 77.6569C211.843 79.1571 213.878 80 216 80H232V96H136C125.395 96.0119 115.228 100.23 107.729 107.729C100.23 115.228 96.012 125.395 96.0001 136C96.0001 138.122 96.8429 140.157 98.3432 141.657C99.8435 143.157 101.878 144 104 144H111.062L103.949 208H56C49.637 208.007 43.5367 210.538 39.0374 215.037C34.5381 219.537 32.0072 225.637 32.0001 232V286.176L22.3791 288.166C21.2627 288.397 20.2087 288.864 19.2875 289.535C18.3663 290.207 17.5992 291.067 17.0377 292.059C16.4762 293.052 16.1332 294.152 16.0317 295.288C15.9301 296.423 16.0724 297.567 16.449 298.643L72.449 458.643C72.5624 458.963 72.696 459.275 72.849 459.578L80.0001 473.889C83.3021 480.549 88.4041 486.151 94.7277 490.059C101.051 493.967 108.343 496.025 115.777 496H396.223C403.657 496.025 410.949 493.967 417.272 490.059C423.596 486.151 428.698 480.549 432 473.889L439.155 459.578C439.308 459.275 439.442 458.963 439.555 458.643L495.555 298.643C495.932 297.567 496.074 296.423 495.972 295.288C495.871 294.152 495.528 293.052 494.966 292.059C494.405 291.067 493.638 290.207 492.717 289.535C491.795 288.864 490.741 288.397 489.625 288.166H489.621ZM34.5701 301.982L248 257.824V273.533L40.2001 318.062L34.5701 301.982ZM398.77 269.37L352 259.693V224H393.73L398.77 269.37ZM336 256.382L264 241.482V224H336V256.382ZM248 241.482L176 256.382V224H248V241.482ZM160 259.689L113.229 269.366L118.27 224H160V259.689ZM248 289.889V400.659L74.393 415.759L45.5251 333.283L248 289.889ZM264 289.889L466.475 333.276L437.607 415.755L264 400.666V289.889ZM264 273.526V257.824L477.43 301.982L471.802 318.062L264 273.526ZM464 232V282.865L416 272.934V224H456C458.121 224.002 460.155 224.846 461.654 226.346C463.154 227.846 463.998 229.879 464 232V232ZM224 48H288V64H224V48ZM248 80H264V96H248V80ZM136 112H376C380.962 112.006 385.8 113.547 389.852 116.411C393.903 119.276 396.969 123.324 398.629 128H113.371C115.031 123.324 118.097 119.276 122.148 116.411C126.2 113.547 131.038 112.006 136 112V112ZM127.16 144H384.84L391.952 208H120.052L127.16 144ZM48 232C48.0024 229.879 48.8461 227.846 50.3458 226.346C51.8456 224.846 53.879 224.002 56 224H96.0001V272.934L48 282.865V232ZM79.848 431.348L256 416.03L432.152 431.348L426.324 448H85.6761L79.848 431.348ZM396.223 480H115.777C111.317 480.015 106.941 478.78 103.147 476.435C99.353 474.09 96.2919 470.728 94.3111 466.732L92.9441 464H419.056L417.689 466.732C415.708 470.728 412.647 474.09 408.853 476.435C405.059 478.78 400.683 480.015 396.223 480V480Z" fill="#BE8D55"/>
<path d="M80.239 393.94C80.7177 395.861 81.892 397.536 83.5347 398.64C85.1774 399.745 87.1715 400.201 89.131 399.92L145.131 391.92C147.038 391.648 148.782 390.697 150.044 389.242C151.305 387.787 152 385.926 152 384V344C152 342.784 151.723 341.584 151.19 340.492C150.657 339.399 149.882 338.443 148.923 337.694C147.965 336.946 146.849 336.426 145.66 336.174C144.471 335.922 143.239 335.944 142.06 336.239L78.06 352.239C76.0019 352.753 74.2325 354.064 73.1409 355.883C72.0493 357.702 71.7249 359.881 72.239 361.939L80.239 393.94ZM136 354.246V377.062L94.011 383.062L89.7 365.821L136 354.246Z" fill="#BE8D55"/>
<path d="M439.761 361.94C440.275 359.882 439.951 357.703 438.859 355.884C437.768 354.065 435.998 352.754 433.94 352.24L369.94 336.24C368.761 335.945 367.53 335.923 366.34 336.175C365.151 336.427 364.035 336.947 363.077 337.695C362.119 338.443 361.344 339.4 360.811 340.492C360.277 341.585 360 342.784 360 344V384C360 385.926 360.695 387.787 361.956 389.242C363.218 390.697 364.962 391.648 366.869 391.92L422.869 399.92C424.829 400.201 426.823 399.745 428.465 398.64C430.108 397.536 431.282 395.861 431.761 393.94L439.761 361.94ZM417.989 383.06L376 377.06V354.246L422.3 365.821L417.989 383.06Z" fill="#BE8D55"/>
</svg>
