<svg width="512" height="512" viewBox="0 0 512 512" fill="none" xmlns="http://www.w3.org/2000/svg">
<path d="M479.057 206.509C473.069 201.664 463.104 193.582 461.856 189.752C460.587 185.774 463.866 172.974 465.834 165.357C470.552 146.971 476.434 124.099 463.253 106.094C450.135 88.2162 426.544 86.6502 407.587 85.3802C399.737 84.8302 386.577 83.9622 383.255 81.5502C379.891 79.1172 374.834 66.6552 371.809 59.1862C364.34 40.6732 355.835 19.6842 335.079 12.9982C314.429 6.24922 295.556 18.2032 278.947 28.7182C271.626 33.3302 260.603 40.3132 255.991 40.3132C251.569 40.3132 240.673 33.2252 233.437 28.5282C217.463 18.1392 197.49 5.27522 176.438 12.4272C155.724 19.4732 147.304 40.3342 139.835 58.6992C136.831 66.1042 131.837 78.4602 128.41 80.9782C125.067 83.4532 111.674 84.3422 103.676 84.8712C83.682 86.2252 61.022 87.7492 48.285 105.775C35.781 123.484 41.387 145.319 46.338 164.594C48.285 172.253 51.585 185.075 50.4 188.904C49.131 192.564 39.271 200.668 33.389 205.513C18.513 217.787 0 233.041 0 255.892C0 278.594 18.154 293.68 32.731 305.782C39.057 311.029 48.599 318.963 49.89 322.899C51.159 326.792 47.859 339.444 45.87 346.998C41.046 365.553 35.016 388.658 48.705 406.811C62.056 424.457 85.541 426.022 104.435 427.292C112.285 427.842 125.424 428.688 128.767 431.122C132.11 433.556 137.146 445.996 140.171 453.465C147.661 471.978 156.145 492.967 176.922 499.674C181.09 501.049 185.216 501.642 189.236 501.642C205.147 501.642 219.83 492.333 233.075 483.996C240.374 479.384 251.377 472.401 255.989 472.401C260.496 472.401 271.328 479.299 278.48 483.869C294.348 493.961 314.152 506.614 335.162 499.42C355.854 492.374 364.275 471.534 371.744 453.127C374.748 445.743 379.742 433.366 383.169 430.848C386.533 428.373 399.841 427.484 407.797 426.955C427.643 425.601 450.155 424.099 463.083 406.347C476.095 388.511 470.509 366.443 465.58 346.999C463.655 339.403 460.439 326.73 461.602 322.921C462.871 319.261 472.731 311.157 478.592 306.312C493.487 294.04 512 278.764 512 255.913C512 233.253 493.72 218.421 479.057 206.509ZM451.7 273.686C439.323 283.863 426.522 294.421 421.486 309.549C416.345 324.952 420.534 341.455 424.575 357.408C426.543 365.194 429.843 378.206 429.399 380.893C426.183 383.305 412.917 384.215 404.983 384.723C389.263 385.781 371.448 386.966 358.182 396.698C345.043 406.325 338.674 422.045 332.517 437.237C329.513 444.727 324.435 457.273 322.34 459.178C318.489 459.178 307.72 452.259 301.267 448.155C287.959 439.692 272.873 430.065 256.01 430.065C239.126 430.065 223.913 439.713 210.457 448.219C203.94 452.324 193.023 459.263 190.696 459.771C187.417 457.422 182.423 445.024 179.419 437.619C173.199 422.237 166.767 406.348 153.501 396.805C140.32 387.305 123.52 386.184 107.25 385.105C99.612 384.597 85.373 383.645 82.791 381.889C81.479 378.144 84.801 365.344 86.811 357.727C90.725 342.641 95.19 325.546 90.154 309.931C85.097 294.338 71.662 283.145 59.792 273.285C53.995 268.461 43.183 259.469 42.273 256.211C43.225 252.233 54.333 243.072 60.299 238.185C72.676 227.987 85.477 217.429 90.513 202.301C95.697 186.792 91.423 170.162 87.318 154.082C85.329 146.317 81.986 133.326 82.24 130.851C85.477 128.524 98.637 127.635 106.508 127.106C123.032 126.006 140.149 124.842 153.415 115.131C166.554 105.504 172.923 89.8052 179.08 74.6142C182.084 67.1032 187.184 54.5772 189.13 52.6942C193.044 52.7572 203.919 59.8242 210.415 64.0352C223.829 72.7522 239.063 82.6332 256.01 82.6332C272.873 82.6332 288.128 72.9852 301.542 64.5012C308.059 60.3752 318.976 53.4572 321.304 52.9492C324.562 55.2982 329.577 67.6962 332.581 75.1012C338.801 90.4622 345.233 106.351 358.499 115.893C371.68 125.414 388.501 126.535 404.793 127.614C412.833 128.164 426.311 129.074 428.828 130.597C430.119 134.321 426.839 147.185 424.85 154.844C420.978 169.993 416.577 187.152 421.634 202.809C426.733 218.572 440.38 229.637 452.419 239.391C457.92 243.876 468.055 252.065 469.62 256C468.119 260.124 457.476 268.904 451.7 273.686Z" fill="#BE8D55"/>
<path d="M350.608 176.19C341.595 168.658 328.286 169.885 320.818 178.835L226.475 291.628L186.338 251.513C178.065 243.24 164.693 243.24 156.421 251.513C148.148 259.786 148.148 273.158 156.421 281.43L212.913 337.922C216.869 341.921 222.265 344.121 227.872 344.121C228.168 344.121 228.486 344.121 228.782 344.079C234.748 343.825 240.271 341.075 244.079 336.526L353.252 205.98C360.742 197.01 359.579 183.68 350.608 176.19Z" fill="#BE8D55"/>
</svg>
