<svg width="36" height="36" viewBox="0 0 36 36" fill="none" xmlns="http://www.w3.org/2000/svg">
<g clip-path="url(#clip0)">
<path d="M33.5377 21.8149L30.5375 18.2147C30.42 18.0832 30.2521 18.0079 30.0755 18.0079C29.8991 18.0079 29.7312 18.0832 29.6137 18.2147L26.6135 21.8149C26.4644 21.9939 26.4322 22.2433 26.5312 22.4542C26.6302 22.6649 26.8424 22.7997 27.0753 22.7991H28.0295C27.1415 26.4175 23.9251 29.2076 19.8748 29.8557V14.3986H25.2752C25.6068 14.3986 25.8752 14.1299 25.8752 13.7985V11.3984C25.8752 11.067 25.6068 10.7983 25.2752 10.7983H19.8748V9.25019C22.0048 8.3888 23.2257 6.13866 22.7868 3.88325C22.3479 1.62813 20.3723 0 18.0747 0C15.7774 0 13.8018 1.62813 13.3629 3.88325C12.924 6.13866 14.1449 8.3888 16.2746 9.25019V10.7983H10.8743C10.5429 10.7983 10.2742 11.067 10.2742 11.3984V13.7985C10.2742 14.1299 10.5429 14.3986 10.8743 14.3986H16.2746V29.8557C12.2244 29.2076 9.00823 26.4175 8.12019 22.7991H9.07415C9.30737 22.7997 9.5195 22.6649 9.61853 22.4542C9.71755 22.2433 9.68533 21.9939 9.5362 21.8149L6.53601 18.2147C6.41852 18.0832 6.25064 18.0079 6.07397 18.0079C5.89759 18.0079 5.72971 18.0832 5.61222 18.2147L2.61203 21.8149C2.4629 21.9939 2.43067 22.2433 2.5297 22.4542C2.62873 22.6649 2.84085 22.7997 3.07378 22.7991H4.41214C5.28817 28.3796 10.1544 32.7656 16.2746 33.4919V34.1998C16.2761 34.3589 16.3382 34.5115 16.4486 34.6258L17.6487 35.8259C17.8854 36.0579 18.2643 36.0579 18.501 35.8259L19.7011 34.6258C19.8115 34.5115 19.8737 34.3589 19.8748 34.1998V33.4919C25.9953 32.7656 30.8616 28.3796 31.7376 22.7991H33.0757C33.3089 22.7997 33.521 22.6649 33.62 22.4542C33.7191 22.2433 33.6868 21.9939 33.5377 21.8149ZM18.0747 6.59807C17.0806 6.59807 16.2746 5.79206 16.2746 4.79796C16.2746 3.80385 17.0806 2.99784 18.0747 2.99784C19.0691 2.99784 19.8748 3.80385 19.8748 4.79796C19.8748 5.79206 19.0691 6.59807 18.0747 6.59807Z" fill="#BE8D55"/>
</g>
<defs>
<clipPath id="clip0">
<rect width="36" height="36" fill="white"/>
</clipPath>
</defs>
</svg>
